<svg xmlns="http://www.w3.org/2000/svg" xmlns:xlink="http://www.w3.org/1999/xlink" version="1.1" x="0px" y="0px" viewBox="0 0 90 112.5" enable-background="new 0 0 90 90" xml:space="preserve"><g><path d="M28.307,57.525c-1.965,4.344-2.359,16.893,1.541,23.74c0,0,2.042,1.29,2.051-2.592c0,0-1.686-12.238,3.512-13.689   l-0.797-11.603C34.614,53.382,30.273,53.183,28.307,57.525z"/><path d="M55.391,53.382L54.59,64.986c5.2,1.452,3.516,13.688,3.516,13.688c0.008,3.883,2.05,2.591,2.05,2.591   c3.899-6.848,3.507-19.396,1.541-23.739C59.73,53.182,55.391,53.382,55.391,53.382z"/><path d="M44.992,6.258c0,0-11.985,13.185-11.453,25.172l2.929,36.757c0,0,0.333,0.201,0.94,0.475l1.457,6.464   c0,0,1.722,0.853,4.307,1.179c-0.159-2.828-0.129-5.539-0.129-5.539h3.729c0.034,2.258-0.005,4.084-0.087,5.575   c1.398-0.151,2.898-0.512,4.433-1.215l1.36-6.481c0.344-0.143,0.69-0.29,1.038-0.456l2.664-31.963   C56.18,36.224,58.31,18.911,44.992,6.258z M44.913,37.872c-3.641,0-6.593-2.951-6.592-6.592c0-3.642,2.952-6.593,6.592-6.593   c3.641,0,6.593,2.952,6.593,6.593S48.554,37.871,44.913,37.872z"/><path d="M43.172,76.305c0.171,3.079,0.566,6.297,1.469,6.297c0,0,1.623,1.258,2.044-6.261   C45.405,76.477,44.22,76.435,43.172,76.305z"/><polygon points="13.785,39.724 11.543,42.937 7.625,42.912 9.989,46.037 8.754,49.756 12.457,48.474 15.612,50.797 15.537,46.879    18.721,44.597 14.972,43.458  "/><polygon points="69.016,30.337 72.484,28.514 75.952,30.337 75.289,26.475 78.096,23.74 74.218,23.177 72.484,19.663 70.75,23.177    66.873,23.74 69.678,26.475  "/><polygon points="78.174,78.156 76.904,75.582 75.634,78.156 72.793,78.569 74.848,80.572 74.362,83.402 76.904,82.066    79.445,83.402 78.959,80.572 81.016,78.569  "/><rect x="73.279" y="3.151" transform="matrix(0.9972 0.075 -0.075 0.9972 0.9751 -5.5157)" width="1.25" height="14.141"/><rect x="70.1" y="33.506" transform="matrix(-0.9972 -0.075 0.075 -0.9972 137.5016 105.0905)" width="1.25" height="32.913"/><rect x="-3.963" y="22.21" transform="matrix(0.1054 0.9944 -0.9944 0.1054 31.718 10.4113)" width="28.07" height="1.25"/><rect x="-1.64" y="68.801" transform="matrix(-0.1054 -0.9944 0.9944 -0.1054 -52.6602 91.4804)" width="32.914" height="1.25"/><rect x="68.501" y="61.764" transform="matrix(-0.1527 0.9883 -0.9883 -0.1527 154.1718 -7.3994)" width="23.513" height="1.25"/></g><text x="0" y="105" fill="#000000" font-size="5px" font-weight="bold" font-family="'Helvetica Neue', Helvetica, Arial-Unicode, Arial, Sans-serif">Created by Jonathan Li</text><text x="0" y="110" fill="#000000" font-size="5px" font-weight="bold" font-family="'Helvetica Neue', Helvetica, Arial-Unicode, Arial, Sans-serif">from the Noun Project</text></svg>