<svg xmlns="http://www.w3.org/2000/svg" version="1.1" x="0px" y="0px"
     viewBox="0 0 100 125" enable-background="new 0 0 100 100" xml:space="preserve"><g><path fill="none" d="M53.154,32.502c-0.869-0.128-1.738-0.192-2.602-0.192c-3.744,0-7.376,1.194-10.437,3.468   c-3.766,2.797-6.218,6.895-6.903,11.537c-0.685,4.641,0.479,9.272,3.276,13.038c2.798,3.767,6.895,6.218,11.537,6.903   c4.64,0.686,9.271-0.477,13.038-3.276c3.766-2.797,6.218-6.894,6.903-11.536C69.381,42.861,62.736,33.916,53.154,32.502z"/><path
        fill="none"
        d="M91.896,59.679l-7.364-3.75c-0.213-0.108-0.453-0.18-0.732-0.218c-0.13-0.017-0.249-0.087-0.328-0.192   c-0.079-0.106-0.113-0.239-0.094-0.369c0.262-1.789,0.378-3.633,0.345-5.484c-0.004-0.246,0.174-0.459,0.418-0.497   c0.142-0.021,0.214-0.031,0.286-0.051l7.921-2.351c1.228-0.364,1.93-1.659,1.566-2.887L89.78,29.946   c-0.176-0.595-0.574-1.086-1.119-1.381c-0.545-0.295-1.173-0.359-1.768-0.184l-7.923,2.351c-0.231,0.068-0.455,0.183-0.688,0.35   c-0.107,0.077-0.24,0.11-0.37,0.086c-0.13-0.022-0.246-0.095-0.323-0.203c-1.071-1.517-2.254-2.937-3.517-4.22   c-0.172-0.174-0.19-0.448-0.042-0.644c0.097-0.126,0.139-0.178,0.173-0.237l4.125-7.16c0.31-0.537,0.392-1.163,0.231-1.763   c-0.161-0.599-0.546-1.099-1.083-1.408L64.885,8.276c-1.11-0.639-2.533-0.257-3.172,0.853l-4.126,7.16   c-0.118,0.205-0.202,0.44-0.256,0.72c-0.025,0.128-0.1,0.242-0.21,0.316c-0.109,0.072-0.244,0.101-0.371,0.074   c-0.55-0.108-1.104-0.206-1.666-0.288c-1.215-0.18-2.491-0.293-3.793-0.337c-0.245-0.009-0.448-0.196-0.475-0.44   c-0.015-0.152-0.021-0.223-0.038-0.295l-1.937-8.03c-0.146-0.603-0.517-1.114-1.047-1.437c-0.528-0.323-1.152-0.421-1.756-0.275   L31.91,9.703c-1.245,0.3-2.014,1.558-1.713,2.803l1.938,8.033c0.056,0.234,0.159,0.464,0.313,0.704   c0.071,0.111,0.096,0.245,0.067,0.375c-0.028,0.128-0.107,0.24-0.219,0.311c-1.561,0.986-3.038,2.095-4.393,3.297   c-0.184,0.163-0.46,0.167-0.647,0.008c-0.114-0.099-0.166-0.145-0.227-0.185l-6.938-4.491c-0.52-0.337-1.137-0.454-1.749-0.322   c-0.606,0.129-1.126,0.488-1.463,1.008l-7.898,12.2c-0.696,1.075-0.387,2.515,0.688,3.211l6.937,4.491   c0.198,0.128,0.428,0.224,0.704,0.293c0.128,0.032,0.237,0.113,0.305,0.226c0.067,0.113,0.087,0.247,0.055,0.375   c-0.279,1.104-0.504,2.234-0.67,3.358c-0.102,0.689-0.175,1.376-0.233,2.061c-0.021,0.243-0.216,0.435-0.461,0.451   c-0.161,0.009-0.229,0.011-0.299,0.023l-8.122,1.519c-1.259,0.237-2.091,1.453-1.855,2.711l2.673,14.286   c0.235,1.258,1.448,2.092,2.71,1.855l8.123-1.52c0.236-0.044,0.471-0.135,0.719-0.276c0.115-0.065,0.251-0.083,0.377-0.046   c0.127,0.035,0.234,0.119,0.299,0.234c0.896,1.597,1.929,3.128,3.069,4.555c0.154,0.192,0.142,0.468-0.026,0.647   c-0.106,0.111-0.156,0.16-0.198,0.219l-4.845,6.696c-0.75,1.037-0.517,2.493,0.521,3.243l11.774,8.518   c1.037,0.751,2.492,0.519,3.243-0.52l4.843-6.696c0.139-0.191,0.246-0.415,0.329-0.686c0.038-0.127,0.125-0.232,0.241-0.293   c0.115-0.063,0.251-0.075,0.378-0.036c1.636,0.504,3.327,0.888,5.028,1.138c2.383,0.354,4.826,0.446,7.262,0.275   c0.012-0.001,0.023-0.001,0.035-0.001c0.23,0,0.432,0.16,0.482,0.388c0.032,0.153,0.044,0.219,0.067,0.284l2.757,7.79   c0.207,0.585,0.63,1.054,1.189,1.321s1.189,0.298,1.775,0.093l13.701-4.848c0.585-0.207,1.054-0.629,1.321-1.189   c0.267-0.56,0.3-1.19,0.094-1.775l-2.757-7.789c-0.081-0.228-0.206-0.447-0.385-0.669c-0.083-0.102-0.12-0.235-0.105-0.365   c0.015-0.131,0.082-0.251,0.186-0.333c1.468-1.153,2.825-2.407,4.036-3.728c0.166-0.181,0.438-0.212,0.641-0.076   c0.127,0.088,0.181,0.127,0.242,0.158l7.363,3.75c0.553,0.281,1.182,0.33,1.772,0.14c0.59-0.192,1.07-0.603,1.351-1.155   l6.597-12.95C93.492,61.663,93.037,60.262,91.896,59.679z M68.946,52.588c-0.724,4.903-3.313,9.23-7.292,12.186   c-3.233,2.401-7.069,3.662-11.024,3.662c-0.912,0-1.83-0.067-2.749-0.202c-4.903-0.724-9.23-3.314-12.186-7.292   c-2.956-3.978-4.185-8.87-3.461-13.773c0.724-4.903,3.313-9.23,7.292-12.186c3.978-2.956,8.87-4.183,13.773-3.462   C63.42,33.017,70.439,42.466,68.946,52.588z"/><path
        d="M92.345,58.799l-7.364-3.75c-0.176-0.09-0.362-0.162-0.56-0.217c0.207-1.562,0.306-3.162,0.297-4.768l7.912-2.348   c1.75-0.52,2.752-2.366,2.233-4.117l-4.134-13.933c-0.519-1.75-2.366-2.75-4.116-2.232l-7.922,2.351   c-0.192,0.057-0.379,0.133-0.564,0.232c-0.946-1.305-1.973-2.535-3.06-3.667l4.12-7.149c0.442-0.767,0.559-1.659,0.329-2.513   c-0.229-0.855-0.778-1.568-1.544-2.01L65.379,7.418c-1.582-0.911-3.611-0.366-4.523,1.216l-4.126,7.16   c-0.099,0.171-0.18,0.352-0.245,0.547c-0.416-0.076-0.834-0.147-1.257-0.21c-1.122-0.165-2.295-0.276-3.49-0.33l-1.936-8.024   c-0.428-1.775-2.223-2.87-3.996-2.443L31.678,8.741c-1.776,0.429-2.871,2.221-2.443,3.997l1.937,8.033   c0.047,0.194,0.114,0.384,0.202,0.574c-1.344,0.874-2.625,1.837-3.818,2.87l-6.929-4.486c-0.743-0.481-1.628-0.642-2.493-0.459   c-0.865,0.185-1.606,0.696-2.087,1.439l-7.898,12.2c-0.992,1.532-0.552,3.586,0.98,4.579l6.937,4.491   c0.165,0.106,0.34,0.196,0.531,0.272c-0.236,0.991-0.43,2-0.579,3.004c-0.084,0.572-0.15,1.142-0.203,1.71l-8.115,1.518   c-1.795,0.336-2.981,2.07-2.645,3.864L7.73,66.632c0.337,1.794,2.071,2.986,3.864,2.645l8.123-1.52   c0.196-0.037,0.388-0.094,0.581-0.171c0.798,1.377,1.695,2.705,2.672,3.958l-4.84,6.69c-1.07,1.479-0.737,3.553,0.742,4.624   l11.775,8.518c1.48,1.069,3.554,0.737,4.624-0.742l4.843-6.695c0.115-0.158,0.214-0.329,0.299-0.516   c1.545,0.454,3.134,0.803,4.73,1.038c2.319,0.341,4.693,0.443,7.063,0.309l2.753,7.779c0.295,0.834,0.897,1.503,1.695,1.883   c0.452,0.216,0.937,0.325,1.423,0.325c0.373,0,0.746-0.064,1.108-0.191l13.701-4.848c0.833-0.296,1.502-0.897,1.883-1.696   c0.381-0.798,0.428-1.697,0.133-2.531l-2.757-7.789c-0.067-0.188-0.153-0.371-0.26-0.551c1.26-1.016,2.436-2.105,3.508-3.244   l7.349,3.743c0.788,0.402,1.686,0.473,2.527,0.199c0.841-0.273,1.526-0.858,1.927-1.647l6.596-12.95   C94.621,61.627,93.972,59.628,92.345,58.799z M92.912,62.804l-6.597,12.95c-0.281,0.552-0.761,0.963-1.351,1.155   c-0.591,0.19-1.219,0.141-1.772-0.14l-7.363-3.75c-0.061-0.031-0.115-0.07-0.242-0.158c-0.203-0.135-0.475-0.104-0.641,0.076   c-1.21,1.321-2.568,2.575-4.036,3.728c-0.104,0.082-0.171,0.202-0.186,0.333c-0.015,0.13,0.023,0.263,0.105,0.365   c0.179,0.222,0.304,0.441,0.385,0.669l2.757,7.789c0.207,0.585,0.174,1.215-0.094,1.775c-0.267,0.56-0.736,0.982-1.321,1.189   l-13.701,4.848c-0.585,0.206-1.215,0.175-1.775-0.093s-0.982-0.736-1.189-1.321l-2.757-7.79c-0.023-0.065-0.035-0.131-0.067-0.284   c-0.05-0.228-0.252-0.388-0.482-0.388c-0.012,0-0.023,0-0.035,0.001c-2.436,0.171-4.879,0.078-7.262-0.275   c-1.7-0.25-3.392-0.634-5.028-1.138c-0.126-0.04-0.263-0.027-0.378,0.036c-0.116,0.061-0.203,0.166-0.241,0.293   c-0.083,0.27-0.19,0.495-0.329,0.686l-4.843,6.696c-0.751,1.038-2.206,1.271-3.243,0.52l-11.774-8.518   c-1.038-0.75-1.271-2.206-0.521-3.243l4.845-6.696c0.042-0.059,0.092-0.108,0.198-0.219c0.168-0.179,0.179-0.455,0.026-0.647   c-1.141-1.427-2.173-2.958-3.069-4.555c-0.065-0.115-0.172-0.199-0.299-0.234c-0.126-0.037-0.263-0.018-0.377,0.046   c-0.248,0.141-0.483,0.232-0.719,0.276l-8.123,1.52c-1.262,0.237-2.475-0.598-2.71-1.855L6.029,52.165   c-0.236-1.258,0.596-2.474,1.855-2.711l8.122-1.519c0.07-0.013,0.138-0.015,0.299-0.023c0.244-0.016,0.44-0.208,0.461-0.451   c0.058-0.685,0.131-1.372,0.233-2.061c0.166-1.124,0.391-2.254,0.67-3.358c0.032-0.128,0.012-0.262-0.055-0.375   c-0.068-0.113-0.177-0.194-0.305-0.226c-0.275-0.069-0.506-0.164-0.704-0.293l-6.937-4.491c-1.075-0.696-1.384-2.136-0.688-3.211   l7.898-12.2c0.337-0.521,0.857-0.879,1.463-1.008c0.611-0.132,1.229-0.015,1.749,0.322l6.938,4.491   c0.061,0.04,0.113,0.086,0.227,0.185c0.187,0.159,0.463,0.155,0.647-0.008c1.355-1.202,2.832-2.311,4.393-3.297   c0.112-0.07,0.19-0.183,0.219-0.311c0.028-0.129,0.004-0.264-0.067-0.375c-0.154-0.24-0.257-0.47-0.313-0.704l-1.938-8.033   c-0.3-1.245,0.469-2.503,1.713-2.803l14.128-3.407c0.604-0.146,1.228-0.047,1.756,0.275c0.53,0.324,0.901,0.834,1.047,1.437   l1.937,8.03c0.017,0.071,0.023,0.143,0.038,0.295c0.027,0.244,0.229,0.432,0.475,0.44c1.302,0.044,2.578,0.157,3.793,0.337   c0.561,0.082,1.116,0.18,1.666,0.288c0.127,0.027,0.262-0.002,0.371-0.074c0.109-0.073,0.185-0.187,0.21-0.316   c0.054-0.279,0.138-0.515,0.256-0.72l4.126-7.16c0.639-1.11,2.062-1.492,3.172-0.853l12.592,7.257   c0.537,0.309,0.922,0.809,1.083,1.408c0.161,0.6,0.079,1.226-0.231,1.763l-4.125,7.16c-0.035,0.059-0.077,0.111-0.173,0.237   c-0.147,0.196-0.129,0.47,0.042,0.644c1.263,1.283,2.446,2.702,3.517,4.22c0.076,0.108,0.192,0.181,0.323,0.203   c0.13,0.024,0.264-0.009,0.37-0.086c0.232-0.167,0.457-0.282,0.688-0.35l7.923-2.351c0.594-0.175,1.223-0.11,1.768,0.184   c0.545,0.296,0.943,0.786,1.119,1.381l4.134,13.933c0.364,1.228-0.338,2.523-1.566,2.887l-7.921,2.351   c-0.072,0.02-0.144,0.03-0.286,0.051c-0.244,0.039-0.422,0.251-0.418,0.497c0.033,1.851-0.084,3.695-0.345,5.484   c-0.019,0.13,0.015,0.263,0.094,0.369c0.079,0.105,0.198,0.175,0.328,0.192c0.28,0.039,0.519,0.11,0.732,0.218l7.364,3.75   C93.037,60.262,93.492,61.663,92.912,62.804z"/><path
        d="M53.299,31.522c-4.904-0.721-9.795,0.505-13.773,3.462c-3.979,2.956-6.568,7.283-7.292,12.186   c-0.724,4.903,0.505,9.794,3.461,13.773c2.955,3.978,7.283,6.568,12.186,7.292c0.919,0.135,1.837,0.202,2.749,0.202   c3.955,0,7.791-1.261,11.024-3.662c3.979-2.955,6.568-7.283,7.292-12.186C70.439,42.466,63.42,33.017,53.299,31.522z    M67.967,52.443c-0.685,4.642-3.137,8.739-6.903,11.536c-3.767,2.799-8.398,3.962-13.038,3.276   c-4.642-0.685-8.739-3.136-11.537-6.903c-2.798-3.766-3.961-8.397-3.276-13.038c0.685-4.642,3.136-8.74,6.903-11.537   c3.061-2.275,6.693-3.468,10.437-3.468c0.864,0,1.733,0.064,2.602,0.192C62.736,33.916,69.381,42.861,67.967,52.443z"/></g>
    <text x="0" y="115" fill="#000000" font-size="5px" font-weight="bold"
          font-family="'Helvetica Neue', Helvetica, Arial-Unicode, Arial, Sans-serif">Created by Valeriy</text>
    <text x="0" y="120" fill="#000000" font-size="5px" font-weight="bold"
          font-family="'Helvetica Neue', Helvetica, Arial-Unicode, Arial, Sans-serif">from the Noun Project</text></svg>