<svg xmlns="http://www.w3.org/2000/svg" xmlns:xlink="http://www.w3.org/1999/xlink" version="1.1" x="0px" y="0px" viewBox="0 0 100 125" style="enable-background:new 0 0 100 100;" xml:space="preserve"><title>60 all</title><path d="M72,28.5H34.9c-1.6,0-3.1,0.7-4,2L17.6,48.2c-0.8,1.1-0.8,2.5,0,3.6l13.3,17.7c0.9,1.3,2.4,2,4,2H72c6.1,0,11-4.9,11-11  V39.5C83,33.4,78.1,28.5,72,28.5L72,28.5z M81,60.5c0,5-4,9-9,9H34.9c-0.9,0-1.8-0.4-2.4-1.2L19.2,50.6c-0.3-0.4-0.3-0.8,0-1.2  l13.3-17.7c0.6-0.8,1.5-1.2,2.4-1.2H72c5,0,9,4,9,9V60.5z"/><path d="M65.4,42.5c-0.4-0.4-1-0.4-1.4,0l-6.1,6.1l-6.1-6.1c-0.4-0.4-1.1-0.3-1.4,0.1c-0.3,0.4-0.3,0.9,0,1.3l6.1,6.1l-6.1,6.1  c-0.4,0.4-0.5,1-0.1,1.4s1,0.5,1.4,0.1c0,0,0.1-0.1,0.1-0.1l6.1-6.1l6.1,6.1c0.4,0.4,1.1,0.3,1.4-0.1c0.3-0.4,0.3-0.9,0-1.3L59.3,50  l6.1-6.1C65.8,43.5,65.8,42.9,65.4,42.5C65.4,42.5,65.4,42.5,65.4,42.5z"/><text x="0" y="115" fill="#000000" font-size="5px" font-weight="bold" font-family="'Helvetica Neue', Helvetica, Arial-Unicode, Arial, Sans-serif">Created by Astonish</text><text x="0" y="120" fill="#000000" font-size="5px" font-weight="bold" font-family="'Helvetica Neue', Helvetica, Arial-Unicode, Arial, Sans-serif">from the Noun Project</text></svg>