<?xml version="1.0" encoding="UTF-8"?>
<!DOCTYPE svg  PUBLIC '-//W3C//DTD SVG 1.1//EN'  'http://www.w3.org/Graphics/SVG/1.1/DTD/svg11.dtd'>
<svg enable-background="new 99.6844 -12.4032 346.3156 560.8438" version="1.1" viewBox="99.6844 -12.4032 346.3156 560.8438" xml:space="preserve" xmlns="http://www.w3.org/2000/svg">
	<path d="m281.35 23.31c3.94-1.76 8.54-1.68 12.53-0.15 24.05 8.8 44.42 26.11 58.86 47.07 12.96 18.82 21.16 40.83 23.75 63.54 14.07-4.72 28.21-9.25 42.27-13.98 2.1-1.01 4.06 0.48 5.93 1.31 0.17 4.83-0.07 9.71-1.44 14.37-4.51 16.66-12.12 32.99-24.55 45.24-5.3 5.28-11.58 9.65-18.61 12.28-1.77 0.78-3.93 1.27-4.92 3.12-2.23 3.7-4.89 7.11-7.46 10.57-1.27 1.85 1.37 3.34 2.15 4.86-0.78 0.08-2.34 0.23-3.13 0.31-0.16 14.49-0.1484 31.816-0.4384 46.296-1.7-1.16-6.8429-4.4582-7.8229-3.7082 0.85-1.71 1.7513-3.9975 2.2513-5.8375 2.22-6.62 2.32-14.17-0.89-20.48-1.99-3.2-6.25-3.21-9.54-2.55-3.91 2.94-5.91 7.53-8.28 11.66 0.05-2.94 0.14-5.87 0.23-8.8-0.39 0.19-1.16 0.56-1.54 0.75-12.71 6.75-26.82 10.25-40.94 12.53 6.91-7.47 15.63-13.9 19.02-23.94-8.35 4.27-16.94 7.97-25.62 11.46 0.24 3.63 1.63 7.13 1.38 10.81-0.39 8.79-7.36 16.82-15.99 18.51-3.04 0.49-6.13 0.32-9.17-0.04-3.42-2.01-6.67-4.29-10.13-6.23-1.21-1.37-2.33-2.82-3.34-4.33-1.2-3.14-1.87-6.44-2.54-9.72-1.41 0.17-2.81 0.32-4.22 0.49-9.82 1.12-19.71 1.74-29.6 1.58-0.21 0.68-0.64 2.06-0.85 2.74-0.96-0.79-1.9-1.6-2.85-2.38-3.86-1.12-7.91-0.91-11.87-1.3-5.65-0.56-11.28-1.4-16.85-2.55-3.18-0.69-6.37-1.4-9.6-1.8 0.11-0.36 0.34-1.09 0.46-1.45 7.51-2.1 14.6-5.44 22.03-7.79-2.85 2.63-6.11 4.75-9.54 6.54-1.04 0.55-2.09 1.09-3.12 1.66 13.96 3.09 28.36 3.9 42.63 3.55 26.98-1.14 54.17-6.19 78.7-17.84 4.68-2.21 9.07-4.98 13.76-7.19-0.2 1.46-0.42 2.93-0.68 4.39-1.56 8.18-7.64 14.17-12.78 20.29 1.87-0.54 3.76-1.05 5.61-1.68 10.82-3.72 20.97-9.16 30.6-15.29 10.02-6.55 19.74-14.15 26.44-24.22-6.62 0.68-13.14 2.1-19.74 2.98-7.67 1.06-15.36 2.05-23.05 2.9-3.9 0.51-7.82 0.79-11.71 1.33-30.33 3.09-60.71 5.71-91.12 7.8-5.32 0.65-10.74 0.28-16.02 1.23-1.33 2.66-2.23 5.57-4.16 7.91-0.18-1.6-0.33-3.2-0.46-4.79l-0.62 0.02c-4.79 0.03-9.7-1.33-14.41-0.09-10.86 4.31-17.42 16.74-15.46 28.17 1.49 7.92 6.77 15.01 13.91 18.74 6.9 3.76 15.39 3.37 22.62 0.77 0.37 0.1 1.1 0.3 1.47 0.4 0.23 0.7 0.7 2.09 0.93 2.79-1.9 0.94-3.81 1.86-5.7 2.8 4.45 2.83 9.5 4.84 14.84 4.9 29.73 1.89 59.25 6.17 88.99 7.86 15.24 1.05 32.04-2.4 43.02-13.7 0.9-0.96 1.72-1.98 2.55-2.99 1.8-0.37 3.62-0.64 5.43-1.01-8.08 13.88-24.48 19.58-39.53 21.87 2.99 2.25 6.94 1.08 10.24 2.45 4.1 1.55 7.36 4.67 9.85 8.2 2.5 3.72 6.27 6.51 8.07 10.7 2.56 4.9 2.39 10.56 2.67 15.93l-3 0.28c0.8 4.31 0.61 8.74-0.64 12.95-0.3-0.22-0.88-0.65-1.18-0.87 0.46-4.27 0.51-8.77-1.26-12.76-0.73-2.17-3.4-2.17-5.28-2.4-4.09-0.2-8.62-0.14-12.09 2.34-0.63 4.11-0.47 8.3-0.82 12.45-0.29 8.9-2.16 18.1 1.18 26.69 1.74-0.47 3.47-0.96 5.23-1.34 7.51-2.16 14.89 1.03 22.22 2.32-0.61-7.72 0.48-15.98-3.53-22.99 6.8 4.77 4.91 14.07 5.35 21.2-0.62 3.84 3.16 5.78 5.13 8.43-1.33 6.93-1.77 14.35-6.27 20.16 4.83 2.67 8.81 7.59 8.06 13.42-1.49 6.91-4.62 13.35-7.06 19.96-1.06 3.09-2.75 5.91-4.85 8.4 1.09 1.39 2.39 2.6 3.95 3.46 2.38 7.75 4.85 15.48 7.41 23.18-1.55 1.24-3.09 2.47-4.62 3.74 0.48 2.55 0.95 5.11 1.37 7.67 5.75 1.22 11.06 3.75 16.47 5.92 7.88-0.46 16.22 0.11 22.99 4.63 8.77 6.26 14.83 17.03 13.85 27.98-0.32 1.99-0.5 4.35-2.02 5.82-12.93 0.41-25.89-0.2-38.84 0.19-5.04 0.37-9.95-1.21-14.98-1.02-7.35 0.15-14.68-0.61-22.02-0.41-4.95-0.15-9.95 0.42-14.86-0.33-1-0.87-1.96-1.92-1.88-3.34-0.66-9.49 1.52-19.2 6-27.59 1.51-3.07 4.76-5.8 3.49-9.53-2.01-0.54-5.16 0.12-6.07-2.29-2.48-7.18-4.45-14.54-7.05-21.69 0.73-0.61 1.47-1.21 2.2-1.81-0.38-3.25-0.17-6.54-0.63-9.77-1.28-1.09-2.68-1.99-4.05-2.93-7.52 8.06-17.73 13.7-28.83 14.57 5.38-8.43 11.92-16.31 15.31-25.85-1.56-2.78-3.88-6.4-7.57-5.59-7.98 0.54-15.99 0.22-23.96 0.51-2.89 3.71-4.51 8.2-6.96 12.19-1.51 2.83-3.78 5.16-5.33 7.96-0.16 1.69-0.07 3.4-0.06 5.11 0.07-3.92-1.69-8.25 0.65-11.8 2.56-4.58 5.12-9.16 7.62-13.77-3.21-0.19-6.43-0.39-9.63-0.72-7.92-0.54-15.68-2.35-23.59-2.87-1.2 4.08-2.42 8.19-2.67 12.47 4.29-2.4 9.09-3.55 14.01-3.42-1.78 0.45-3.57 0.83-5.32 1.35-6.54 1.54-12.02 7.02-13.43 13.59-0.73 1.64 0.99 2.44 2.03 3.32 6.96 4.28 14.6 7.54 22.57 9.38 1.99 0.43 4.02 0.7 6.05 0.96 0.74-2.55 1.45-5.12 1.73-7.76 0.07 2.49-0.11 4.98-0.38 7.47 0.6 0.22 1.8 0.65 2.4 0.87-2.1 5.64-4.73 11.07-6.78 16.73-1.03 2.31-1.5 5.02-3.36 6.85-1.62 0.38-3.29 0.5-4.94 0.73 3.93 8.68 7.92 17.68 7.94 27.4-0.13 3.25 0.97 8.24-3.08 9.53-4.88 0.5-9.69-1.05-14.57-0.76-25.27 0.44-50.54 0.15-75.8 0.05-5.34-16.08 6.56-34.64 22.94-37.67 4.7-1.5 9.64 0.02 14.39-0.66 5.47-2.32 11.08-4.38 17-5.24 0.5-1.68 0.99-3.37 1.47-5.05-1.53-1.44-3.07-2.86-4.62-4.27 3.24-7.13 6.1-14.42 9.01-21.68 0.3-1.44 1.94-1.45 3.05-1.91 1.42-2.29 2.96-4.5 4.72-6.55-1.18-5.75 0.69-11.37 2.16-16.86-5.31-1.25-10.61-2.51-15.86-3.96-0.21-1.48 0.12-3.18-0.76-4.47-4.99-6.08-9.98-12.18-14.78-18.41-2.91-4.69-1.55-10.4 0.8-14.99-3.17-4.38-6.95-8.59-7.81-14.16-1.39-3.14 1.1-5.9 1.53-8.91-0.38-2.75-0.87-5.62-2.33-8.02-3.36-0.59-6.76-0.92-10.12-1.51 3.13-0.85 6.23-1.81 9.27-2.95-7.13-0.73-14.4-0.52-21.36-2.41-7.35-1.88-14.74-4.5-20.76-9.24-2.94-2.21-3.98-5.86-5.14-9.17 4.01-0.1 8.01-0.53 11.97-1.15-3.57-1.71-7.29-3.52-9.75-6.75-3.82-4.75-5-10.97-5.2-16.91 5.44 2.19 11.43 4.05 17.28 2.28 7.76-2.63 14.62-8.82 17.05-16.76 1.1-4.77 1.64-9.67 2.16-14.53 0.38-2.59-1.46-4.67-2.48-6.86-4.86-8.77-4.57-19.94 0.33-28.62 2.07-3.76 5.62-6.52 7.22-10.57-11.11-0.29-22.24 0.42-33.34-0.27-8.38-0.73-17.3-3.23-23.03-9.77-5.21-6.17-4.67-14.89-3.43-22.35 1.62-5.93 3.57-12.17 8.05-16.6 4.35-4.49 9.68-7.88 15.15-10.84 11.69-6.33 24.03-11.38 36.66-15.51-0.21-18.99 1.18-38.31 7.43-56.38 4.61-12.98 12.17-25.37 23.52-33.49 8.29-6.02 18.25-9.66 28.38-10.94 5.98-0.88 11.85 3.83 17.67 1.1 8.29-4.05 14.18-11.78 22.71-15.45m2.99 3.02c-9.76 3.46-15.91 12.93-25.58 16.53-6.28 2.27-12.43-2.16-18.77-1.16-8.32 1.19-16.38 4.27-23.43 8.85-12.1 8.09-20.02 21.1-24.42 34.76-1.31 4.44-3.15 8.86-3.33 13.52-3.53 12.31-3.42 25.34-3.03 38.04 14.75-4.39 29.66-8.63 45-10.23 4.99-0.4 10.11-0.72 15.01 0.54 2.98 0.77 6.19 2.88 6.52 6.21 0.44 3.84 0.75 7.7 1.66 11.47 39.47-3.36 78.9-7.22 118.35-10.75-0.39-9.76-2.83-19.3-5.9-28.53-1.79-5.02-3.43-10.21-6.52-14.62-0.73-3.16-2.66-5.85-4.17-8.66-13.43-23.52-33.98-43.43-59.14-53.93-3.83-1.56-8.08-3.54-12.25-2.04m131.71 109.8c-4.75 14.27-13.13 27.54-25.06 36.85-15.58 12.35-36.37 17-55.92 14.72-16.01-1.81-31.94-5.1-47.07-10.7-10.02-3.9-19.89-8.78-27.84-16.15-3.5-3.21-6-7.29-8.82-11.07-1.3-5.57-2.97-11.09-3.07-16.87-3.63-3.16-8.81-2.73-13.29-2.65-12.72 0.77-25.17 3.87-37.41 7.24-16.84 4.91-33.48 10.79-49.04 18.95-6.42 3.65-13.23 7.31-17.82 13.26-2.35 3.67-4.09 7.84-4.75 12.16-0.54 1.32-1.1 2.64-1.39 4.05-0.78 5.89 0.37 12.44 4.77 16.74 4.78 4.52 11.49 6.2 17.86 6.95 11.91 1.1 23.88 0.05 35.82 0.21 41.25-2.21 82.47-5.28 123.58-9.36 20.94-2.26 41.96-4.27 62.66-8.24 10.37-1.86 19.99-7.12 27.26-14.72 6.49-6.82 12.4-14.66 15.38-23.67 2.45-4.43 4.1-9.25 5.73-14.02 1.67-5.25 3.33-10.62 3.1-16.19-2.64 3.71-3.3 8.28-4.68 12.51m-32.46-0.59c-2.06 0.83-4.62 1.12-6.14 2.84-0.31 4.16 0.53 8.29 0.83 12.42 0.89 8.06 1.08 16.2 2.59 24.18 18.27-9.97 29.39-29.35 34.02-49.11-10.65 2.48-20.83 6.57-31.3 9.67m-119.58 12.37c-2.73 0.25-5.45 0.62-8.15 1.08 0.95 1.42 1.59 3.19 3.05 4.19 3.64 5.31 8.9 9.2 14.32 12.55 8.82 5.29 18.6 8.68 28.41 11.64 2.69 0.76 5.41 1.59 8.23 1.71 21.75 5.77 46.3 8.66 67.03-2.1-0.29-1.54-0.58-3.07-0.86-4.59-1.04-10-2.05-20-2.73-30.02-0.11-1.45-0.23-2.89-0.35-4.33-36.33 3.15-72.63 6.68-108.95 9.87m91.02 71.14c2.12 1.63 4.04 3.49 6.11 5.19 0.37-0.08 1.11-0.23 1.47-0.31 0.28-3.95 0.11-7.92 0.08-11.88-2.56 2.33-5.11 4.67-7.66 7m-76.34 14.27c-4.71 1.21-9.47 2.21-14.23 3.2-1.29 0.22-2.58 0.45-3.87 0.68-1.32 0.17-2.63 0.34-3.95 0.51-0.42 8.6 5.86 16.53 14.14 18.6 4.55 1.92 10.26 0.37 13.77-2.97 5.09-3.96 10.1-11.62 5.1-17.61-1.15-5.4-7.24-3.71-10.96-2.41m-98.31 28.46c-1.16 6.17-0.93 12.83-4.15 18.44-2.08 4-5.46 7.05-8.62 10.18-3.66 1.25-6.81 3.81-10.68 4.56-4.14 1.28-8.48 0.49-12.62-0.26 1.12 5.74 4.54 11.35 10.15 13.6 4.4 2.06 9.36 1.28 13.92 0.3-4.68 6.25-12.9 7.64-20.15 8.49 2.88 4.55 7.91 6.84 12.71 8.8 8.97 3.54 18.67 5.11 28.3 4.71 0.32-6.88 5.63-11.81 7.13-18.31 1.52-2.53 3.41-4.84 5.65-6.77-0.77-0.59-1.55-1.18-2.32-1.76 4.08-6.35 9.82-12.18 17.48-13.73 5.02-0.73 9.68-3.2 14.82-3.26 3.23-0.04 6.18 1.39 9.16 2.42 2.24-0.94 3.97-2.74 5.98-4.07 2.93-2.18 6.43-3.34 9.81-4.6-11.98-1.15-23.98-2.09-35.99-2.97-5.87-0.45-11.46-2.84-16.08-6.44-2.62-2.41-6.37-1.48-9.56-2.26-5.58-0.79-10.48-3.79-14.94-7.07m81.72 19.61c3.26 7.81 6.7 15.56 10.49 23.13 3.01-4.28 6.42-8.28 9.13-12.75-0.76-3.42-3.51-6.14-5.24-9.15-4.79-0.52-9.56-1.24-14.38-1.23m17.05 1.64c4.61 6.58 8.2 13.77 12.3 20.67 2.6-6.23 4.57-12.68 6.5-19.13-2.06-0.12-4.12-0.25-6.17-0.39-3-0.61-6.06-0.68-9.1-0.88-1.18-0.09-2.36-0.18-3.53-0.27m-27.94 2.17c-0.95 4.06-2.16 8.08-2.63 12.24-4.52-8.68-16.47-10.27-24.54-5.85 3.81 2.56 7.59 5.26 10.55 8.8 3.15 3.54 4.9 8.01 6.65 12.35 0.42 3.16 0.91 6.31 1.33 9.47 4.49-3.62 8.27-8.59 8.74-14.52 5.55 6.32 11.27 12.59 17.5 18.26-1.07-9.66-2.66-19.26-3.79-28.92-0.43-4.62-2.09-8.98-4.19-13.07-3.22 0.33-6.42 0.75-9.62 1.24m48.73-0.51c-0.73 2.4-1.61 4.76-2 7.24 2.44 4.56 6.36 8.16 9.61 12.15 0.77-6.16 1.35-12.34 2.11-18.5-3.25-0.19-6.49-0.52-9.72-0.89m14.95 2.16c-3.6 2.09-4.39 6.36-4.78 10.16 3.56-2.79 6.78-5.98 9.73-9.39-1.52-0.72-3.39-2.36-4.95-0.77m8.61 2.11c1.07 3.76 3.27 7.07 4.51 10.78 4.56-0.65 9.18-0.61 13.78-0.54-2.1-3.45-4.63-6.79-8.2-8.83-2.97-1.75-6.8-3.12-10.09-1.41m-2.38 2.83c0.35 6.17 3.15 11.92 3.29 18.12-4.71 3.82-8.31 8.74-12.46 13.11-2.26 2.55-4.97 5.11-5.4 8.67-0.9 5.5-1.41 11.06-2.3 16.57-0.79 6.06-2.78 12.26-0.94 18.34 1.81 6.46 2.39 13.24 4.54 19.6 3.6 2.1 7.92 2.8 12.05 2.62 3.75-0.19 6.92-2.38 10.05-4.23 1.31-1.84 4.04-3.47 3.43-6.06-1.62-8-4.6-15.68-6.04-23.71-0.83-7.27 0.76-14.54 0.75-21.82-0.01-8.33 2.23-16.81-0.02-25.02-1.6-5.66-3.22-11.52-6.95-16.19m-115.27 10.05c8.78 2.34 16.03 9.12 18.85 17.78 0.95 4.32 1.08 8.74 1.01 13.15 4.72-1.58 9.32-4.03 12.56-7.9 0.79-4.57-0.34-9.18-1.66-13.55-3.4-8.17-10.15-14.88-18.55-17.78-4.87 1.26-9.28 4.19-12.21 8.3m104 1.86c-2.02 6.55-2.13 13.55-2.09 20.37 4.49-4.28 8.52-9 12.67-13.6 0.95-1.3 2.55-2.54 2.29-4.33-0.47-4.24-1.96-8.28-3.14-12.35-3.49 3.02-7.39 5.84-9.73 9.91m-27.51-8.93c-2.14 2.99-4.19 6.05-6.39 9-1.2 1.38-2.37 2.79-3.49 4.24-0.83-0.72-1.66-1.45-2.48-2.17 0.39 6.23 1.23 12.43 2.32 18.58 5.63-5.32 11.23-10.71 16.32-16.54 1.32 0.41 1.6-1.67 0.82-2.39-2.05-3.77-4.58-7.26-7.1-10.72m12.54 7.13c1.71-1.8 4.87-3.59 3.06-6.43-1.28 2.01-2.27 4.18-3.06 6.43m0.01 4.99c-14.29 14.38-28.29 29.04-42.83 43.17-1.89 1.61-3.04 3.84-3.36 6.31 2.36-1.04 4.57-2.42 6.36-4.29 15.41-15.28 30.88-30.51 46.3-45.78 0.9-1 1.76-2.06 2.48-3.2-0.84-0.77-1.74-1.48-2.74-2.01-2.31 1.66-4.23 3.78-6.21 5.8m34.57-3.32c0.41 4.76 2.35 9.37 1.69 14.26 6.23-2.35 13.02-1.65 19.29 0.13-0.57-4.98-2.06-10.05-5.33-13.95-5.1-1.2-10.47-1.04-15.65-0.44m-125.28 3.59c-4.63 3.17-7.57 8.04-10.39 12.76-2.44 4.03-2.81 9.09-1.44 13.56 1.2 4.11 1.93 8.34 2.85 12.52 6.98-6.45 16.41-10.28 25.99-9.25 0.38 0.06 1.13 0.18 1.51 0.24 0.03-3.59 0.21-7.2-0.2-10.77-0.86-4.88-3.65-9.08-5.83-13.44-2.85-2.37-5.64-5.02-9.18-6.31-1.12-0.49-2.34 0.15-3.31 0.69m90.32 10.94c0.81 2.09 1.39 4.33 0.74 6.55-0.63-1.69-1.19-3.41-2-5.02-3.76-2.13-4.4 3.31-6 5.52l0.4 0.08c-4.45 3.76-8.36 8.09-12.61 12.05 1.09 5.64 2.6 11.2 4.22 16.71 7.22-1.24 14.61-1.65 21.81 0.04 2.55-15.66 4.84-31.43 5.23-47.31-4.08 3.63-7.8 7.65-11.79 11.38m-48.98 6.42c-3.97 3.39-8.18 6.49-12.16 9.86 0.42 4.37 0.99 8.73 1.67 13.08 4.13-0.37 7.97 1.28 11.89 2.28 1.87-0.97 3.32-2.56 4.8-4.02 5.23-5.52 10.96-10.59 15.54-16.7-4.69-5.83-9.81-11.29-15.33-16.33-1.59 4.18-2.82 8.85-6.41 11.83m-20.84 12.78c1.89 0.98 3.8 1.94 5.69 2.95-0.11-1.57-0.23-3.15-0.34-4.71-1.79 0.57-3.58 1.15-5.35 1.76m-30.43 15.05c-0.61 6.29 3.7 11.68 8.25 15.48 3.97-6.01 9.6-10.6 14.7-15.59 3.05-3.23 7.83-2.63 11.82-3.37-0.49-2.36-0.82-4.8-1.87-7-3.18-2.28-7.39-2.28-11.15-2.28-8.66 0.25-17.83 4.78-21.75 12.76m60.71 5.38c5.7 6.06 7.13 14.98 5.66 22.94-1.11 4.11-5.46 5.84-8.65 8.08 5.29-0.6 11.16-0.19 15.85-2.94 2.8-4.33 3.69-9.55 5.69-14.25 1.49-4.49 4.3-9.1 2.93-13.98-1.41-5.58-3.06-11.09-4.61-16.63-5.85 5.36-11.55 10.9-16.87 16.78m-24.86-5.67c2.8 3.89 5.94 7.51 9.2 11.02 1.17-0.76 2.36-1.49 3.45-2.36 3.01-2.25 2.35-7.94-1.39-9.07-3.68-1.11-7.55-0.05-11.26 0.41m-7.69 1.34c-5.71 2.6-8.99 8.43-13.45 12.62-3.48 4.08-9.56 7.72-8.3 13.95 1.3 4.56 5.17 7.75 7.88 11.5 3.11 3.54 5.27 8.13 9.39 10.65 3.39 1.85 6.63-0.99 8.79-3.37 4.58-5.07 9.45-9.87 14.06-14.9 2.85-2.83 3.48-7.52 1.28-10.93-3.15-5.05-7.36-9.33-10.82-14.17-2.14-2.66-4.92-6.4-8.83-5.35m61.03 2c-3.5 1.15-2.52 5.16-3.09 7.95 0 1.14 0.08 2.44 1.09 3.18 3.04 3.05 7.71 1.95 11.57 2.15 3.29 0.28 7.39-1.28 7.57-5.09-0.66-2.84 0.49-6.95-3.03-8.17-4.54-1.15-9.57-1.11-14.11-0.02m-40.23 10.57c0.27 0.66 0.81 1.98 1.08 2.64 4.64 0.04 9.38 0.08 13.73 1.94-2.05-3.38-3.59-7.33-6.71-9.88-3.71-1.72-5.42 3.67-8.1 5.3m88.92-1.23c1.13 4.36 2.24 8.73 3.26 13.12 2.43 0.28 5.5 2.23 7.53 0.06 4.06-4.08 7.66-8.59 11.29-13.04-6.96-3.13-15.05-2.96-22.08-0.14m6.42 22.26c0.45 0.69 1.35 2.06 1.8 2.75 1.28 0.85 2.55 1.71 3.83 2.57 6.4-7.25 13.12-14.26 18.81-22.1-0.93-0.79-1.85-1.57-2.76-2.35-1.09-0.73-2.17-1.45-3.25-2.16-6.29 6.97-12.29 14.19-18.43 21.29m-60.22-18.12c-2.72 7.1-4.9 14.42-8.12 21.31-1.24-0.1-2.47-0.19-3.69-0.28l0.01 0.83c-5.39 0.86-10.81 1.48-16.26 1.73-1.75 4.46-3.77 9.68-9.11 10.65-4.39 0.19-8.52 2.32-12.97 1.7-1.98-0.35-3.78 0.5-5.38 1.57 5.6 1.64 11.35 2.72 17.12 3.58 5.96 0.91 11.91 2.05 17.95 2.26 5.98 1.2 12.1 0.85 18.17 0.98 8.08 0.18 16.19 0.05 24.24-0.91 4.04-0.11 8.08-0.45 12.05-1.28 5.41-0.68 10.82-1.43 16.1-2.82 4.54-0.87 9.09-1.71 13.64-2.62-2.7-6.59-6.09-12.88-9.73-18.99-2.79 1.87-5.47 4.03-8.69 5.12-3.51 0.97-7.2 0.56-10.79 0.41-2.27-0.66-4.44-1.65-6.62-2.53-1.9-6.77-3.08-13.7-4.57-20.56-3.52 0.73-7.05 1.64-10.67 1.69-4.3 0.07-8.49-1.07-12.68-1.84m-32.08 3.19c0.26 3.92 0.25 7.86-0.02 11.78 2.37-0.12 4.8-0.01 7.12-0.59 3.28-1.14 4.38-5.58 2.82-8.43-2.22-3.18-6.58-2.41-9.92-2.76m108.28 12.77c0.38 1.22 0.96 2.37 1.49 3.54 3.61-3.2 5.22-7.82 5.9-12.47-2.83 2.61-6.01 5.23-7.39 8.93m-112.14 2.43c-1.97 0.98-2.87 3.15-4.03 4.9 2.05 0.07 4.5 1.04 6.25-0.52 1.09-1.15 1.9-2.53 2.79-3.83-1.67-0.23-3.33-0.55-5.01-0.55m107.66 1.75c-1.37 1.58-2.78 3.15-3.89 4.94 1.43 1.97 4.27 3.27 4.6 5.83-2.05 3-4.35 5.89-5.45 9.41 3.48 5.87 2.44 13.75 7.98 18.43 4.58-3.74 5.01-10.05 7.29-15.15 1.38-4.68 4.87-9.72 2.63-14.65-2.85-4.73-8.56-6.33-13.16-8.81m-8.13 5.03c0.81 3.18 1.82 7.11 5.79 7.33 0.01-0.8 0.03-2.41 0.04-3.22-1.94-1.38-3.87-2.77-5.83-4.11m-112.21 7.08c1.98-0.26 4.39 0.13 5.82-1.6 1.36-1.22 1.15-3.21 1.57-4.82-3.35 0.94-5.81 3.39-7.39 6.42m88.53 12.85c-1.54 0.18-3.11 0.26-4.59 0.73-1.42 1.96-2.25 4.25-3.25 6.44 3.56 4.2 7.14 8.4 11.06 12.27-0.12 4.11-1.07 8.57 0.81 12.43 1.72 1.31 4.27 0.06 6.33 0.02 8.09-1.31 15.71-4.42 23.1-7.85l-0.33-0.95c0.97 1.65 3.04-0.84 2.25-2.17-0.65-5.94-5.05-11.1-10.33-13.66-2.7-1.94-6.23-1.85-9.39-2.24 4.1-0.65 8.14 0.35 12.02 1.63-1.09-3.9-2.73-7.65-5.02-10.99-7.57 1.21-15.09 3.02-22.66 4.34m-13.38 9.43c-3.28 7.47-7.79 14.27-12.14 21.15 8.54-1.94 16.21-6.88 22.04-13.34-2.49-3.58-6.25-5.65-9.9-7.81m35.76 22.2c-6.04 2.28-12.47 3.1-18.85 3.7 1.91 6.58 4.44 12.94 6.55 19.45 11.55 0.1 23.13-3.12 32.6-9.83 0.78-0.88 2.62-1.52 2.22-2.96-1.01-6.22-3.8-11.98-5.51-18.03-5.62 2.67-11.05 5.79-17.01 7.67m-118.42-5.9c-1.92 5.17-4.16 10.21-6.18 15.34-0.47 1.45-1.37 3.53 0.37 4.51 9.23 7.79 21.27 12.59 33.43 12.35 2.57-5.96 5.07-11.96 7.47-17.99-6.34-1.64-12.9-2.62-18.93-5.28-5.75-2.29-10.76-5.97-16.16-8.93m128.52 27.98c-5.34 2.28-11.1 3.38-16.86 3.88 1.5 2.78 2.92 5.59 4.28 8.45-1.49-0.66-2.97-1.33-4.45-1.99-0.13 0.5-0.4 1.49-0.53 1.99-6.5 7.99-7.92 18.88-8.12 28.86 25.11 0.92 50.24 1.11 75.36 1.63 4.43 0.22 8.87 0.43 13.28-0.12l-0.68-0.29c-0.11-0.63-0.34-1.91-0.45-2.55 0.58-2.42 0.99-4.95 0.31-7.38-2.79-11.71-13.2-20.95-24.94-23.09-5.17-0.94-10.68 0.8-15.62-1.43-3.48-1.36-7.19-3.14-10.96-1.78-0.17-3.32-0.19-6.74-1.53-9.84-3.24 0.63-6.06 2.47-9.09 3.66m-132.69-2.77c-1.19 3.79-1.7 7.77-1.35 11.74-0.44-0.47-0.88-0.93-1.32-1.39-0.49-1.24-0.97-2.48-1.45-3.71-6.14 0.58-11.58 4.78-17.88 3.69-14.75-1.95-30.16 9.02-33.13 23.57-0.91 3.05-0.69 6.22 0.18 9.26l-0.59 0.36c5.5 0.31 11.01 0.16 16.51 0.17 23.72-0.14 47.44 0.44 71.16 0.28 0.91-9.9-1.18-20.06-6.11-28.7-1.13 0.87-2.24 1.77-3.34 2.69-0.46-0.05-1.36-0.14-1.81-0.19 1.58-2.49 3.11-5 4.58-7.54-9.1-1.62-17.73-5.17-25.45-10.23z" fill="#020101" stroke="#020101" stroke-width=".4"/>
	<path d="m284.34 26.33c4.17-1.5 8.42 0.48 12.25 2.04 25.16 10.5 45.71 30.41 59.14 53.93 1.51 2.81 3.44 5.5 4.17 8.66 0 0.56 0.02 1.68 0.02 2.24-3.46-4.87-6.31-10.15-9.82-14.99-7.24 7.9-18.78 8.34-28.72 7.34-5.5-0.75-11.85-1.73-15.35-6.55-3.54-4.92-5.64-10.7-7.49-16.42-2.64-9.08-5.21-19.24-0.71-28.19-3.96-2.02-8.48-4.38-13-2.66-9.49 3.42-15.54 12.52-24.91 16.18-6.81 2.59-13.75-1.99-20.69-0.71-11.82 2.16-23.29 7.61-31.44 16.6-5.84 6.58-10.42 14.25-13.61 22.44-1.92 4.88-3.23 9.97-5.15 14.85-0.06-0.56-0.17-1.69-0.22-2.26 0.18-4.66 2.02-9.08 3.33-13.52 4.4-13.66 12.32-26.67 24.42-34.76 7.05-4.58 15.11-7.66 23.43-8.85 6.34-1 12.49 3.43 18.77 1.16 9.67-3.6 15.82-13.07 25.58-16.53z" fill="#894747" stroke="#894747" stroke-width=".4"/>
	<path d="m284.83 31.73c4.52-1.72 9.04 0.64 13 2.66-4.5 8.95-1.93 19.11 0.71 28.19 1.85 5.72 3.95 11.5 7.49 16.42 3.5 4.82 9.85 5.8 15.35 6.55 9.94 1 21.48 0.56 28.72-7.34 3.51 4.84 6.36 10.12 9.82 14.99 0-0.56-0.02-1.68-0.02-2.24 3.09 4.41 4.73 9.6 6.52 14.62 3.07 9.23 5.51 18.77 5.9 28.53-39.45 3.53-78.88 7.39-118.35 10.75-0.91-3.77-1.22-7.63-1.66-11.47-0.33-3.33-3.54-5.44-6.52-6.21-4.9-1.26-10.02-0.94-15.01-0.54-15.34 1.6-30.25 5.84-45 10.23-0.39-12.7-0.5-25.73 3.03-38.04 0.05 0.57 0.16 1.7 0.22 2.26 1.92-4.88 3.23-9.97 5.15-14.85 3.19-8.19 7.77-15.86 13.61-22.44 8.15-8.99 19.62-14.44 31.44-16.6 6.94-1.28 13.88 3.3 20.69 0.71 9.37-3.66 15.42-12.76 24.91-16.18z" fill="#633" stroke="#633" stroke-width=".4"/>
	<path d="m416.05 136.13c1.38-4.23 2.04-8.8 4.68-12.51 0.23 5.57-1.43 10.94-3.1 16.19-1.63 4.77-3.28 9.59-5.73 14.02-4.98 8.09-10.01 16.54-17.83 22.25-7.83 5.57-16.21 10.64-25.5 13.36-9.79 2.89-20.12 3.99-30.3 3.12-9.04-0.71-17.91-2.67-26.89-3.8-17.15-4.73-34.93-9.74-48.92-21.26-5.3-4.62-10.55-10.36-11.12-17.72 2.82 3.78 5.32 7.86 8.82 11.07 7.95 7.37 17.82 12.25 27.84 16.15 15.13 5.6 31.06 8.89 47.07 10.7 19.55 2.28 40.34-2.37 55.92-14.72 11.93-9.31 20.31-22.58 25.06-36.85z" fill="#874646" stroke="#874646" stroke-width=".4"/>
	<path d="m383.59 135.54c10.47-3.1 20.65-7.19 31.3-9.67-4.63 19.76-15.75 39.14-34.02 49.11-1.51-7.98-1.7-16.12-2.59-24.18-0.3-4.13-1.14-8.26-0.83-12.42 1.52-1.72 4.08-2.01 6.14-2.84z" fill="#422222" stroke="#422222" stroke-width=".4"/>
	<path d="m197.57 137.5c12.24-3.37 24.69-6.47 37.41-7.24 4.48-0.08 9.66-0.51 13.29 2.65-0.07 0.74-0.2 2.22-0.27 2.95-6.11-0.86-12.33-1.37-18.48-0.48-21.29 3.01-42 9.28-61.96 17.16-11.15 4.61-22.36 9.6-31.85 17.18-4.63 3.7-6.72 9.41-9.7 14.33-0.02-0.54-0.04-1.63-0.05-2.18 0.66-4.32 2.4-8.49 4.75-12.16 4.59-5.95 11.4-9.61 17.82-13.26 15.56-8.16 32.2-14.04 49.04-18.95z" fill="#874646" stroke="#874646" stroke-width=".4"/>
	<path d="m248.27 132.91c0.1 5.78 1.77 11.3 3.07 16.87 0.57 7.36 5.82 13.1 11.12 17.72 13.99 11.52 31.77 16.53 48.92 21.26-3.98 0.62-7.93 1.41-11.94 1.76-39.78 3.42-79.58 6.68-119.47 8.49-12.36 0.04-24.84 1.14-37.1-0.85-6.59-0.94-12.16-4.74-17.79-8.01-0.19-1.41-0.38-2.82-0.51-4.23 0.29-1.41 0.85-2.73 1.39-4.05 0.01 0.55 0.03 1.64 0.05 2.18 2.98-4.92 5.07-10.63 9.7-14.33 9.49-7.58 20.7-12.57 31.85-17.18 19.96-7.88 40.67-14.15 61.96-17.16 6.15-0.89 12.37-0.38 18.48 0.48 0.07-0.73 0.2-2.21 0.27-2.95z" fill="#633" stroke="#633" stroke-width=".4"/>
	<path d="m264.01 147.91c36.32-3.19 72.62-6.72 108.95-9.87 0.12 1.44 0.24 2.88 0.35 4.33-8.44 1.98-17.15 2.11-25.74 3.09-22.88 2.11-45.77 4.16-68.65 6.26-6.66 0.62-13.32 1.4-20.01 1.46-1.46-1-2.1-2.77-3.05-4.19 2.7-0.46 5.42-0.83 8.15-1.08z" fill="#7C0000" stroke="#7C0000" stroke-width=".4"/>
	<path d="m347.57 145.46c8.59-0.98 17.3-1.11 25.74-3.09 0.68 10.02 1.69 20.02 2.73 30.02-8.96 2.15-18.21 2.15-27.32 3.19-12.96 1.07-25.88 2.55-38.85 3.5-2.82-0.12-5.54-0.95-8.23-1.71-9.81-2.96-19.59-6.35-28.41-11.64-5.42-3.35-10.68-7.24-14.32-12.55 6.69-0.06 13.35-0.84 20.01-1.46 22.88-2.1 45.77-4.15 68.65-6.26z" fill="#600" stroke="#600" stroke-width=".4"/>
	<path d="m394.07 176.08c7.82-5.71 12.85-14.16 17.83-22.25-2.98 9.01-8.89 16.85-15.38 23.67-7.27 7.6-16.89 12.86-27.26 14.72-20.7 3.97-41.72 5.98-62.66 8.24-41.11 4.08-82.33 7.15-123.58 9.36-11.94-0.16-23.91 0.89-35.82-0.21-6.37-0.75-13.08-2.43-17.86-6.95-4.4-4.3-5.55-10.85-4.77-16.74 0.13 1.41 0.32 2.82 0.51 4.23 5.63 3.27 11.2 7.07 17.79 8.01 12.26 1.99 24.74 0.89 37.1 0.85 39.89-1.81 79.69-5.07 119.47-8.49 4.01-0.35 7.96-1.14 11.94-1.76 8.98 1.13 17.85 3.09 26.89 3.8 10.18 0.87 20.51-0.23 30.3-3.12 9.29-2.72 17.67-7.79 25.5-13.36z" fill="#422222" stroke="#422222" stroke-width=".4"/>
	<path d="m348.72 175.58c9.11-1.04 18.36-1.04 27.32-3.19 0.28 1.52 0.57 3.05 0.86 4.59-20.73 10.76-45.28 7.87-67.03 2.1 12.97-0.95 25.89-2.43 38.85-3.5z" fill="#3C0000" stroke="#3C0000" stroke-width=".4"/>
	<path d="m351.9 198.96c6.6-0.88 13.12-2.3 19.74-2.98-6.7 10.07-16.42 17.67-26.44 24.22-9.63 6.13-19.78 11.57-30.6 15.29 2.04-3.37 5.78-4.92 9.01-6.88 11.73-7.21 23.05-16.52 28.29-29.65z" fill="#ff0" stroke="#ff0" stroke-width=".4"/>
	<path d="m328.85 201.86c7.69-0.85 15.38-1.84 23.05-2.9-5.24 13.13-16.56 22.44-28.29 29.65-3.23 1.96-6.97 3.51-9.01 6.88-1.85 0.63-3.74 1.14-5.61 1.68 5.14-6.12 11.22-12.11 12.78-20.29 1.17-5.5 3.66-10.58 7.08-15.02z" fill="#fc0" stroke="#fc0" stroke-width=".4"/>
	<path d="m317.14 203.19c3.89-0.54 7.81-0.82 11.71-1.33-3.42 4.44-5.91 9.52-7.08 15.02 0.26-1.46 0.48-2.93 0.68-4.39-4.69 2.21-9.08 4.98-13.76 7.19-24.53 11.65-51.72 16.7-78.7 17.84-14.27 0.35-28.67-0.46-42.63-3.55 1.03-0.57 2.08-1.11 3.12-1.66 6.09 1.71 12.4 0.31 18.57-0.1 33.14-2.78 65.99-10.35 96.5-23.7 3.89-1.72 7.63-3.75 11.59-5.32z" fill="#FEA000" stroke="#FEA000" stroke-width=".4"/>
	<path d="m226.02 210.99c30.41-2.09 60.79-4.71 91.12-7.8-3.96 1.57-7.7 3.6-11.59 5.32-30.51 13.35-63.36 20.92-96.5 23.7-6.17 0.41-12.48 1.81-18.57 0.1 3.43-1.79 6.69-3.91 9.54-6.54 2.07-1.74 4.04-3.6 5.82-5.64 1.93-2.34 2.83-5.25 4.16-7.91 5.28-0.95 10.7-0.58 16.02-1.23z" fill="#fc0" stroke="#fc0" stroke-width=".4"/>
	<path d="m355.03 219.05c2.55-2.33 5.1-4.67 7.66-7 0.03 3.96 0.2 7.93-0.08 11.88-0.36 0.08-1.1 0.23-1.47 0.31-2.07-1.7-3.99-3.56-6.11-5.19z" fill="#FFD26B" stroke="#FFD26B" stroke-width=".4"/>
	<path d="m190.35 215.27c4.71-1.24 9.62 0.12 14.41 0.09-6.84 0.81-14.01 2.39-19.32 7.08-3.48 2.91-5.86 6.91-7.45 11.12-0.12 0.36-0.35 1.09-0.46 1.45-0.73 2.86-1.54 5.69-2.64 8.43-1.96-11.43 4.6-23.86 15.46-28.17z" fill="#FFF6E4" stroke="#FFF6E4" stroke-width=".4"/>
	<path d="m204.76 215.36l0.62-0.02c0.13 1.59 0.28 3.19 0.46 4.79-1.78 2.04-3.75 3.9-5.82 5.64-7.43 2.35-14.52 5.69-22.03 7.79 1.59-4.21 3.97-8.21 7.45-11.12 5.31-4.69 12.48-6.27 19.32-7.08z" fill="#FFE7AD" stroke="#FFE7AD" stroke-width=".4"/>
	<path d="m177.53 235.01c3.23 0.4 6.42 1.11 9.6 1.8 0.03 6.64 1.71 13.64 6.67 18.38 4.58 4.91 11.47 6.01 17.62 7.76-7.23 2.6-15.72 2.99-22.62-0.77-7.14-3.73-12.42-10.82-13.91-18.74 1.1-2.74 1.91-5.57 2.64-8.43z" fill="#FFE7AD" stroke="#FFE7AD" stroke-width=".4"/>
	<path d="m289.49 243.97c0.3-2.73 0.23-5.49 0.16-8.24 5 5.99-0.01 13.65-5.1 17.61 2.2-2.77 4.48-5.76 4.94-9.37z" fill="#D0D0D0" stroke="#D0D0D0" stroke-width=".4"/>
	<path d="m187.13 236.81c5.57 1.15 11.2 1.99 16.85 2.55 3.96 0.39 8.01 0.18 11.87 1.3-1.21 0.09-2.42 0.18-3.62 0.27 1.14 3.67 2.17 7.41 4.04 10.79 3.34 6.04 9.53 10.3 16.27 11.61 4.76 0.91 9.63 1 14.43 1.69 4.29 0.58 8.55 1.36 12.85 1.88 15.38 2.48 30.45 6.55 45.76 9.43 7.44 1.31 15.18 2.61 22.66 0.86 9.12-2.41 17.91-5.91 26.73-9.19-10.98 11.3-27.78 14.75-43.02 13.7-29.74-1.69-59.26-5.97-88.99-7.86-5.34-0.06-10.39-2.07-14.84-4.9 1.89-0.94 3.8-1.86 5.7-2.8-0.23-0.7-0.7-2.09-0.93-2.79-0.37-0.1-1.1-0.3-1.47-0.4-6.15-1.75-13.04-2.85-17.62-7.76-4.96-4.74-6.64-11.74-6.67-18.38z" fill="#FFD26B" stroke="#FFD26B" stroke-width=".4"/>
	<path d="m256.64 237.71c1.32-0.17 2.63-0.34 3.95-0.51-0.11 3.35-0.56 6.91 0.96 10.04 1.71 4.15 5.48 6.87 9.23 9.07-8.28-2.07-14.56-10-14.14-18.6z" fill="#F8F8F8" stroke="#F8F8F8" stroke-width=".4"/>
	<path d="m249.15 238.72c1.41-0.17 2.81-0.32 4.22-0.49 0.67 3.28 1.34 6.58 2.54 9.72-2.16-3.15-4.38-6.25-6.76-9.23z" fill="#FED16B" stroke="#FED16B" stroke-width=".4"/>
	<path d="m343.66 246.51c-1.06-3.01-1.56-6.29-0.01-9.24 0.43 3.06 0.46 6.17 0.01 9.24z" fill="#939393" stroke="#939393" stroke-width=".4"/>
	<path d="m311.86 247.98c1.32-3.56 2.84-8.34 7.23-8.92 3.73 0.42 5.56 4.33 7.39 7.17-4.95-0.31-9.83 0.61-14.62 1.75z" fill="#FFF8E7" stroke="#FFF8E7" stroke-width=".4"/>
	<path d="m289.65 235.73c-1.15-5.4-7.24-3.71-10.96-2.41-4.71 1.21-9.47 2.21-14.23 3.2-1.2899 0.22-2.58 0.45-3.8699 0.68-0.1101 3.35-0.5601 6.91 0.96 10.04 1.71 4.15 5.48 6.87 9.23 9.07 4.55 1.92 10.26 0.37 13.77-2.97 2.2-2.77 4.48-5.7599 4.9399-9.37 0.3001-2.73 0.2301-5.49 0.1601-8.24z" fill="#333" stroke="#333" stroke-width=".4"/>
	<path d="m359.83 228.12c-1.99-3.2-6.25-3.21-9.54-2.55-3.91 2.94-5.91 7.53-8.28 11.66 0.05-2.94 0.14-5.87 0.23-8.8-0.3899 0.19-1.1599 0.56-1.54 0.75 0.4301 6.44-0.9099 13.11 1.4701 19.32 1.37 5.09 4.7899 9.91 10.26 10.97 0.78-0.83 1.5801-1.66 2.4001-2.47 0.46-0.38 1.3899-1.15 1.8499-1.53 0.6702-0.5099 1.3501-1.0099 2.02-1.52 0.8501-1.71 1.52-3.51 2.02-5.35 2.2198-6.62 2.3199-14.17-0.89-20.48zm-16.17 18.39c-1.0599-3.01-1.5599-6.29-0.01-9.24 0.4301 3.06 0.46 6.17 0.01 9.24z" fill="#333" stroke="#333" stroke-width=".4"/>
	<path d="m303 261.26c5.8 2.1 11.75 4.69 18.05 4.33 2.38-0.07 4.15-1.84 5.97-3.15-1.15 2.4-1.78 6.16-5.09 6.31-7.14 0.74-13.19-3.94-18.93-7.49z" fill="#020201" stroke="#020201" stroke-width=".4"/>
	<path d="m180.38 261.78c4.46 3.28 9.36 6.28 14.94 7.07 3.19 0.78 6.94-0.15 9.56 2.26 4.62 3.6 10.21 5.99 16.08 6.44 12.01 0.88 24.01 1.82 35.99 2.97-3.38 1.26-6.88 2.42-9.81 4.6-2.01 1.33-3.74 3.13-5.98 4.07-2.98-1.03-5.93-2.46-9.16-2.42-5.14 0.06-9.8 2.53-14.82 3.26-7.66 1.55-13.4 7.38-17.48 13.73 0.77 0.58 1.55 1.17 2.32 1.76-2.24 1.93-4.13 4.24-5.65 6.77-13.04-0.59-27.34-3-37.06-12.46 6.54-2.27 14.07-2.98 18.99-8.41-3.56-0.42-7.12-0.85-10.69-1.02 3.16-3.13 6.54-6.18 8.62-10.18 3.22-5.61 2.99-12.27 4.15-18.44z" fill="#fc0" stroke="#fc0" stroke-width=".4"/>
	<path d="m262.1 281.39c4.82-0.01 9.59 0.71 14.38 1.23 1.73 3.01 4.48 5.73 5.24 9.15-2.71 4.47-6.12 8.47-9.13 12.75-3.79-7.57-7.23-15.32-10.49-23.13z" fill="#DCB792" stroke="#DCB792" stroke-width=".4"/>
	<path d="m279.15 283.03c1.17 0.09 2.35 0.18 3.53 0.27 2.16 2.72 3.94 6.35 7.42 7.53 3.16 0.06 4.44-3.57 6.18-5.64-1.5-0.35-3-0.7-4.5-1.01 2.05 0.14 4.11 0.27 6.17 0.39-1.93 6.45-3.9 12.9-6.5 19.13-4.1-6.9-7.69-14.09-12.3-20.67z" fill="#FED16A" stroke="#FED16A" stroke-width=".4"/>
	<path d="m282.68 283.3c3.04 0.2 6.1 0.27 9.1 0.88 1.5 0.31 3 0.66 4.5 1.01-1.74 2.07-3.02 5.7-6.18 5.64-3.48-1.18-5.26-4.81-7.42-7.53z" fill="#FFB92F" stroke="#FFB92F" stroke-width=".4"/>
	<path d="m251.21 285.2c3.2-0.49 6.4-0.91 9.62-1.24 2.1 4.09 3.76 8.45 4.19 13.07 1.13 9.66 2.72 19.26 3.79 28.92-6.23-5.67-11.95-11.94-17.5-18.26-0.52-2.61-1.05-5.22-1.86-7.75-0.22-0.63-0.65-1.88-0.87-2.5 0.47-4.16 1.68-8.18 2.63-12.24z" fill="#522A2A" stroke="#522A2A" stroke-width=".4"/>
	<path d="m299.94 284.69c3.23 0.37 6.47 0.7 9.72 0.89-0.76 6.16-1.34 12.34-2.11 18.5-3.25-3.99-7.17-7.59-9.61-12.15 0.39-2.48 1.27-4.84 2-7.24z" fill="#DCB792" stroke="#DCB792" stroke-width=".4"/>
	<path d="m314.89 286.85c1.56-1.59 3.43 0.05 4.95 0.77-2.95 3.41-6.17 6.6-9.73 9.39 0.39-3.8 1.18-8.07 4.78-10.16z" fill="#640000" stroke="#640000" stroke-width=".4"/>
	<path d="m323.5 288.96c3.29-1.71 7.12-0.34 10.09 1.41 3.57 2.04 6.1 5.38 8.2 8.83-4.6-0.07-9.22-0.11-13.78 0.54-1.24-3.71-3.44-7.02-4.51-10.78z" fill="#DCB792" stroke="#DCB792" stroke-width=".4"/>
	<path d="m156.93 294.96c3.87-0.75 7.02-3.31 10.68-4.56 3.57 0.17 7.13 0.6 10.69 1.02-4.92 5.43-12.45 6.14-18.99 8.41 9.72 9.46 24.02 11.87 37.06 12.46-1.5 6.5-6.81 11.43-7.13 18.31-9.63 0.4-19.33-1.17-28.3-4.71-4.8-1.96-9.83-4.25-12.71-8.8 7.25-0.85 15.47-2.24 20.15-8.49-4.56 0.98-9.52 1.76-13.92-0.3-5.61-2.25-9.03-7.86-10.15-13.6 4.14 0.75 8.48 1.54 12.62 0.26z" fill="#FEA000" stroke="#FEA000" stroke-width=".4"/>
	<path d="m224.04 291.59c8.07-4.42 20.02-2.83 24.54 5.85 0.22 0.62 0.65 1.87 0.87 2.5-1.07 5.16-3.86 9.77-8.21 12.8-1.75-4.34-3.5-8.81-6.65-12.35-2.96-3.54-6.74-6.24-10.55-8.8z" fill="#DCB792" stroke="#DCB792" stroke-width=".4"/>
	<path d="m321.12 291.79c3.73 4.67 5.35 10.53 6.95 16.19 2.25 8.21 0.01 16.69 0.02 25.02 0.01 7.28-1.58 14.55-0.75 21.82 1.44 8.03 4.42 15.71 6.04 23.71 0.61 2.59-2.12 4.22-3.43 6.06-2.4-6.14-3.84-12.59-5.65-18.91-0.95-3.33-1.76-6.74-1.72-10.22 0.42-15.19 2.48-30.35 1.83-45.55-0.14-6.2-2.94-11.95-3.29-18.12z" fill="#502929" stroke="#502929" stroke-width=".4"/>
	<path d="m205.85 301.84c2.93-4.11 7.34-7.04 12.21-8.3 8.4 2.9 15.15 9.61 18.55 17.78-2.19 4.84-7.03 7.08-11.91 8.3-2.82-8.66-10.07-15.44-18.85-17.78z" fill="#E3C5A7" stroke="#E3C5A7" stroke-width=".4"/>
	<path d="m309.85 303.7c2.34-4.07 6.24-6.89 9.73-9.91 1.18 4.07 2.67 8.11 3.14 12.35 0.26 1.79-1.34 3.03-2.29 4.33-4.15 4.6-8.18 9.32-12.67 13.6-0.04-6.82 0.07-13.82 2.09-20.37z" fill="#522A2A" stroke="#522A2A" stroke-width=".4"/>
	<path d="m282.34 294.77c2.52 3.46 5.05 6.95 7.1 10.72 0.78 0.72 0.5 2.8-0.82 2.39-4.26-1.25-8.42-2.82-12.67-4.11 2.2-2.95 4.25-6.01 6.39-9z" fill="#CD9964" stroke="#CD9964" stroke-width=".4"/>
	<path d="m294.88 301.9c0.79-2.25 1.78-4.42 3.06-6.43 1.81 2.84-1.35 4.63-3.06 6.43z" fill="#CC9863" stroke="#CC9863" stroke-width=".4"/>
	<path d="m249.45 299.94c0.81 2.53 1.34 5.14 1.86 7.75-0.47 5.93-4.25 10.9-8.74 14.52-0.42-3.16-0.91-6.31-1.33-9.47 4.35-3.03 7.14-7.64 8.21-12.8z" fill="#CC9863" stroke="#CC9863" stroke-width=".4"/>
	<path d="m294.89 306.89c1.98-2.02 3.9-4.14 6.21-5.8 1 0.53 1.9 1.24 2.74 2.01-0.72 1.14-1.58 2.2-2.48 3.2-15.42 15.27-30.89 30.5-46.3 45.78-1.79 1.87-4 3.25-6.36 4.29 0.32-2.47 1.47-4.7 3.36-6.31 14.54-14.13 28.54-28.79 42.83-43.17z" fill="#630000" stroke="#630000" stroke-width=".4"/>
	<path d="m329.46 303.57c5.18-0.6 10.55-0.76 15.65 0.44 3.27 3.9 4.76 8.97 5.33 13.95-6.27-1.78-13.06-2.48-19.29-0.13 0.66-4.89-1.28-9.5-1.69-14.26z" fill="#E3C5A7" stroke="#E3C5A7" stroke-width=".4"/>
	<path d="m272.46 308.01c1.12-1.45 2.29-2.86 3.49-4.24 4.25 1.29 8.41 2.86 12.67 4.11-5.09 5.83-10.69 11.22-16.32 16.54-1.09-6.15-1.93-12.35-2.32-18.58 0.82 0.72 1.65 1.45 2.48 2.17z" fill="#DCB792" stroke="#DCB792" stroke-width=".4"/>
	<path d="m204.18 307.16c0.97-0.54 2.19-1.18 3.31-0.69 3.54 1.29 6.33 3.94 9.18 6.31-1.22 0.73-2.43 1.46-3.64 2.19 2.19 6.76 2.34 13.9 2.92 20.92 1.74 0.29 3.49 0.58 5.24 0.86-9.58-1.03-19.01 2.8-25.99 9.25-0.92-4.18-1.65-8.41-2.85-12.52-1.37-4.47-1-9.53 1.44-13.56 2.82-4.72 5.76-9.59 10.39-12.76z" fill="#FFE7AD" stroke="#FFE7AD" stroke-width=".4"/>
	<path d="m294.5 318.1c3.99-3.73 7.71-7.75 11.79-11.38-0.39 15.88-2.68 31.65-5.23 47.31-7.2-1.69-14.59-1.28-21.81-0.04-1.62-5.51-3.13-11.07-4.22-16.71 4.25-3.96 8.16-8.29 12.61-12.05 2.54 0.62 5.3 1.01 7.6-0.58 0.65-2.22 0.07-4.46-0.74-6.55m-4.09 21.31c-3.31 0.69-4.14 5.86-1.05 7.42 2.38 1.72 6.37-0.04 6.23-3.11 0.5-2.82-2.54-5.18-5.18-4.31z" fill="#DCB792" stroke="#DCB792" stroke-width=".4"/>
	<path d="m311.95 323.02c4.15-4.37 7.75-9.29 12.46-13.11 0.65 15.2-1.41 30.36-1.83 45.55-0.04 3.48 0.77 6.89 1.72 10.22 1.81 6.32 3.25 12.77 5.65 18.91-3.13 1.85-6.3 4.04-10.05 4.23-4.13 0.18-8.45-0.52-12.05-2.62-2.15-6.36-2.73-13.14-4.54-19.6-1.84-6.08 0.15-12.28 0.94-18.34 0.89-5.51 1.4-11.07 2.3-16.57 0.43-3.56 3.14-6.12 5.4-8.67z" fill="#331B1B" stroke="#331B1B" stroke-width=".4"/>
	<path d="m236.61 311.32c1.32 4.37 2.45 8.98 1.66 13.55-3.24 3.87-7.84 6.32-12.56 7.9 0.07-4.41-0.06-8.83-1.01-13.15 4.88-1.22 9.72-3.46 11.91-8.3z" fill="#DCB792" stroke="#DCB792" stroke-width=".4"/>
	<path d="m216.67 312.78c2.18 4.36 4.97 8.56 5.83 13.44 0.41 3.57 0.23 7.18 0.2 10.77-0.38-0.06-1.13-0.18-1.51-0.24-1.75-0.28-3.5-0.57-5.24-0.86-0.58-7.02-0.73-14.16-2.92-20.92 1.21-0.73 2.42-1.46 3.64-2.19z" fill="#FFD26B" stroke="#FFD26B" stroke-width=".4"/>
	<path d="m245.52 324.52c3.59-2.98 4.82-7.65 6.41-11.83 5.52 5.04 10.64 10.5 15.33 16.33-4.58 6.11-10.31 11.18-15.54 16.7-1.48 1.46-2.93 3.05-4.8 4.02-3.92-1-7.76-2.65-11.89-2.28-0.68-4.35-1.25-8.71-1.67-13.08 3.98-3.37 8.19-6.47 12.16-9.86z" fill="#331B1B" stroke="#331B1B" stroke-width=".4"/>
	<path d="m287.24 325.15c1.6-2.21 2.24-7.65 6-5.52 0.81 1.61 1.37 3.33 2 5.02-2.3 1.59-5.06 1.2-7.6 0.58l-0.4-0.08z" fill="#603131" stroke="#603131" stroke-width=".4"/>
	<path d="m330.8 322.69c3.47-2.48 8-2.54 12.09-2.34 1.88 0.23 4.55 0.23 5.28 2.4 1.77 3.99 1.72 8.49 1.26 12.76 0.3 0.22 0.88 0.65 1.18 0.87 0.29 0.23 0.87 0.69 1.16 0.93 0.52 0.85 1.26 1.44 2.21 1.78 0.28 0.18 0.82 0.55 1.1 0.73 4.01 7.01 2.92 15.27 3.53 22.99-7.33-1.29-14.71-4.48-22.22-2.32-1.78-7.37-3.7-14.86-2.87-22.51-1.18-0.95-2.36-1.9-3.54-2.84 0.35-4.15 0.19-8.34 0.82-12.45z" fill="#FFE7AD" stroke="#FFE7AD" stroke-width=".4"/>
	<path d="m329.98 335.14c1.18 0.94 2.36 1.89 3.54 2.84-0.83 7.65 1.09 15.14 2.87 22.51-1.76 0.38-3.49 0.87-5.23 1.34-3.34-8.59-1.47-17.79-1.18-26.69z" fill="#FED16B" stroke="#FED16B" stroke-width=".4"/>
	<path d="m224.68 337.3c1.77-0.61 3.56-1.19 5.35-1.76 0.11 1.56 0.23 3.14 0.34 4.71-1.89-1.01-3.8-1.97-5.69-2.95z" enable-background="new    " opacity=".16" stroke="#000" stroke-width=".4"/>
	<path d="m290.41 339.41c2.64-0.87 5.68 1.49 5.18 4.31 0.14 3.07-3.85 4.83-6.23 3.11-3.09-1.56-2.26-6.73 1.05-7.42m-0.26 1.39c-0.84 1.13-2.01 2.45-0.94 3.86 0.94 2 4.7 1.6 4.82-0.76 0.54-2.18-1.91-3.92-3.88-3.1z" fill="#020201" stroke="#020201" stroke-width=".4"/>
	<path d="m194.25 352.35c3.92-7.98 13.09-12.51 21.75-12.76 3.76 0 7.97 0 11.15 2.28 1.05 2.2 1.38 4.64 1.87 7-3.99 0.74-8.77 0.14-11.82 3.37-5.1 4.99-10.73 9.58-14.7 15.59-4.55-3.8-8.86-9.19-8.25-15.48z" fill="#522A2A" stroke="#522A2A" stroke-width=".4"/>
	<path d="m254.96 357.73c5.32-5.88 11.02-11.42 16.87-16.78 1.55 5.54 3.2 11.05 4.61 16.63 1.37 4.88-1.44 9.49-2.93 13.98-2 4.7-2.89 9.92-5.69 14.25-4.69 2.75-10.56 2.34-15.85 2.94 3.19-2.24 7.54-3.97 8.65-8.08 1.47-7.96 0.04-16.88-5.66-22.94z" fill="#331B1B" stroke="#331B1B" stroke-width=".4"/>
	<path d="m290.15 340.8c1.97-0.82 4.42 0.92 3.88 3.1-0.12 2.36-3.88 2.76-4.82 0.76-1.07-1.41 0.1-2.73 0.94-3.86z" fill="#6C3737" stroke="#6C3737" stroke-width=".4"/>
	<path d="m230.1 352.06c3.71-0.46 7.58-1.52 11.26-0.41 3.74 1.13 4.4 6.82 1.39 9.07-1.09 0.87-2.28 1.6-3.45 2.36-3.26-3.51-6.4-7.13-9.2-11.02z" fill="#502929" stroke="#502929" stroke-width=".4"/>
	<path d="m222.41 353.4c3.91-1.05 6.69 2.69 8.83 5.35 3.46 4.84 7.67 9.12 10.82 14.17 2.2 3.41 1.57 8.1-1.28 10.93-4.61 5.03-9.48 9.83-14.06 14.9-2.16 2.38-5.4 5.22-8.79 3.37-4.12-2.52-6.28-7.11-9.39-10.65-2.71-3.75-6.58-6.94-7.88-11.5-1.26-6.23 4.82-9.87 8.3-13.95 4.46-4.19 7.74-10.02 13.45-12.62z" fill="#462424" stroke="#462424" stroke-width=".4"/>
	<path d="m283.44 355.4c4.54-1.09 9.57-1.13 14.11 0.02 3.52 1.22 2.37 5.33 3.03 8.17-6.61 2.07-13.71 2.32-20.23-0.24 0.57-2.79-0.41-6.8 3.09-7.95z" fill="#E6E6E6" stroke="#E6E6E6" stroke-width=".4"/>
	<path d="m243.21 365.97c2.68-1.63 4.39-7.02 8.1-5.3 3.12 2.55 4.66 6.5 6.71 9.88-4.35-1.86-9.09-1.9-13.73-1.94-0.27-0.66-0.81-1.98-1.08-2.64z" fill="#FFE4A6" stroke="#FFE4A6" stroke-width=".4"/>
	<path d="m280.35 363.35c6.52 2.56 13.62 2.31 20.23 0.24-0.18 3.81-4.28 5.37-7.57 5.09-3.86-0.2-8.53 0.9-11.57-2.15-1.01-0.74-1.09-2.04-1.09-3.18z" fill="#CECECE" stroke="#CECECE" stroke-width=".4"/>
	<path d="m332.13 364.74c7.03-2.82 15.12-2.99 22.08 0.14-3.63 4.45-7.23 8.96-11.29 13.04-2.03 2.17-5.1 0.22-7.53-0.06-1.02-4.39-2.13-8.76-3.26-13.12z" fill="#522A2A" stroke="#522A2A" stroke-width=".4"/>
	<path d="m338.55 387c6.14-7.1 12.14-14.32 18.43-21.29 1.08 0.71 2.16 1.43 3.25 2.16-6.53 7.37-12.22 15.59-19.88 21.88-0.45-0.69-1.35-2.06-1.8-2.75z" fill="#323232" stroke="#323232" stroke-width=".4"/>
	<path d="m360.23 367.87c0.91 0.78 1.83 1.56 2.76 2.35-5.69 7.84-12.41 14.85-18.81 22.1-1.28-0.86-2.55-1.72-3.83-2.57 7.66-6.29 13.35-14.51 19.88-21.88z" fill="#1A1A1A" stroke="#1A1A1A" stroke-width=".4"/>
	<path d="m278.33 368.88c4.19 0.77 8.38 1.91 12.68 1.84 3.62-0.05 7.15-0.96 10.67-1.69 1.49 6.86 2.67 13.79 4.57 20.56 2.18 0.88 4.35 1.87 6.62 2.53 2.85 0.73 5.75 1.19 8.66 1.67 2.37 4.76 4.65 9.58 6.91 14.41-5.28 1.39-10.69 2.14-16.1 2.82-4.67-8.21-8.53-16.98-14.43-24.42-0.34 8.65 1.88 17.1 2.38 25.7-8.05 0.96-16.16 1.09-24.24 0.91-1.85-7.7-4-15.32-5.84-23.02 3.22-6.89 5.4-14.21 8.12-21.31z" fill="#522A2A" stroke="#522A2A" stroke-width=".4"/>
	<path d="m246.25 372.07c3.34 0.35 7.7-0.42 9.92 2.76 1.56 2.85 0.46 7.29-2.82 8.43-2.32 0.58-4.75 0.47-7.12 0.59 0.27-3.92 0.28-7.86 0.02-11.78z" fill="#4F2929" stroke="#4F2929" stroke-width=".4"/>
	<path d="m354.53 384.84c1.38-3.7 4.56-6.32 7.39-8.93-0.68 4.65-2.29 9.27-5.9 12.47-0.53-1.17-1.11-2.32-1.49-3.54z" fill="#472424" stroke="#472424" stroke-width=".4"/>
	<path d="m242.39 387.27c1.68 0 3.34 0.32 5.01 0.55-0.89 1.3-1.7 2.68-2.79 3.83-1.75 1.56-4.2 0.59-6.25 0.52 1.16-1.75 2.06-3.92 4.03-4.9z" fill="#402121" stroke="#402121" stroke-width=".4"/>
	<path d="m297.91 386.6c5.9 7.44 9.76 16.21 14.43 24.42-3.97 0.83-8.01 1.17-12.05 1.28-0.5-8.6-2.72-17.05-2.38-25.7z" fill="#362222" stroke="#362222" stroke-width=".4"/>
	<path d="m323.66 391.71c3.22-1.09 5.9-3.25 8.69-5.12 3.64 6.11 7.03 12.4 9.73 18.99-4.55 0.91-9.1 1.75-13.64 2.62-2.26-4.83-4.54-9.65-6.91-14.41-2.91-0.48-5.81-0.94-8.66-1.67 3.59 0.15 7.28 0.56 10.79-0.41z" fill="#4A2828" stroke="#4A2828" stroke-width=".4"/>
	<path d="m350.05 389.02c4.6 2.48 10.31 4.08 13.16 8.81 2.24 4.93-1.25 9.97-2.63 14.65-2.28 5.1-2.71 11.41-7.29 15.15-5.54-4.68-4.5-12.56-7.98-18.43 1.1-3.52 3.4-6.41 5.45-9.41-0.33-2.56-3.17-3.86-4.6-5.83 1.11-1.79 2.52-3.36 3.89-4.94z" fill="#472424" stroke="#472424" stroke-width=".4"/>
	<path d="m266.52 389.91c1.22 0.09 2.45 0.18 3.69 0.28 1.84 7.7 3.99 15.32 5.84 23.02-6.07-0.13-12.19 0.22-18.17-0.98 2.03-0.04 4.07-0.15 6.1-0.24 1.32-7.02 3-14.06 2.55-21.25l-0.01-0.83z" fill="#362222" stroke="#362222" stroke-width=".4"/>
	<path d="m250.27 392.47c5.45-0.25 10.87-0.87 16.26-1.73 0.45 7.19-1.23 14.23-2.55 21.25-2.03 0.09-4.07 0.2-6.1 0.24-6.04-0.21-11.99-1.35-17.95-2.26 0.4-2.29 0.81-4.57 1.23-6.85 5.34-0.97 7.36-6.19 9.11-10.65z" fill="#522A2A" stroke="#522A2A" stroke-width=".4"/>
	<path d="m341.92 394.05c1.96 1.34 3.89 2.73 5.83 4.11-0.01 0.81-0.03 2.42-0.04 3.22-3.97-0.22-4.98-4.15-5.79-7.33z" fill="#393838" stroke="#393838" stroke-width=".4"/>
	<path d="m229.71 401.13c1.58-3.03 4.04-5.48 7.39-6.42-0.42 1.61-0.21 3.6-1.57 4.82-1.43 1.73-3.84 1.34-5.82 1.6z" fill="#381C1C" stroke="#381C1C" stroke-width=".4"/>
	<path d="m228.19 404.82c4.45 0.62 8.58-1.51 12.97-1.7-0.42 2.28-0.83 4.56-1.23 6.85-5.77-0.86-11.52-1.94-17.12-3.58 1.6-1.07 3.4-1.92 5.38-1.57z" fill="#352121" stroke="#352121" stroke-width=".4"/>
	<path d="m318.24 413.98c7.57-1.32 15.09-3.13 22.66-4.34 2.29 3.34 3.93 7.09 5.02 10.99-3.88-1.28-7.92-2.28-12.02-1.63 3.16 0.39 6.69 0.3 9.39 2.24 3.52 4.81 6.43 10.07 8.08 15.83l0.33 0.95c-7.39 3.43-15.01 6.54-23.1 7.85-2.04-2.97-4.2-6.05-4.78-9.69-0.76-3.67-0.14-7.54-1.17-11.15-2.19-3.63-5.48-6.44-8.04-9.81 1.2-0.43 2.41-0.84 3.63-1.24z" fill="#FFE7AD" stroke="#FFE7AD" stroke-width=".4"/>
	<path d="m233.8 413.01c7.91 0.52 15.67 2.33 23.59 2.87 0.31 0.34 0.92 1.02 1.23 1.36-1.36 2.59-2.71 5.2-4.02 7.82 4.81 7.98 1.99 17.88-3.61 24.64-7.97-1.84-15.61-5.1-22.57-9.38 1.66-6.84 5.88-12.65 11.4-16.91 1.75-0.52 3.54-0.9 5.32-1.35-4.92-0.13-9.72 1.02-14.01 3.42 0.25-4.28 1.47-8.39 2.67-12.47z" fill="#FFE7AD" stroke="#FFE7AD" stroke-width=".4"/>
	<path d="m313.65 414.71c1.48-0.47 3.05-0.55 4.59-0.73-1.22 0.4-2.43 0.81-3.63 1.24 2.56 3.37 5.85 6.18 8.04 9.81 1.03 3.61 0.41 7.48 1.17 11.15 0.58 3.64 2.74 6.72 4.78 9.69-2.06 0.04-4.61 1.29-6.33-0.02-1.88-3.86-0.93-8.32-0.81-12.43-3.92-3.87-7.5-8.07-11.06-12.27 1-2.19 1.83-4.48 3.25-6.44z" fill="#FFD26C" stroke="#FFD26C" stroke-width=".4"/>
	<path d="m257.39 415.88c3.2 0.33 6.42 0.53 9.63 0.72-2.5 4.61-5.06 9.19-7.62 13.77-2.34 3.55-0.58 7.88-0.65 11.8l0.02 0.73c-0.28 2.64-0.99 5.21-1.73 7.76-2.03-0.26-4.06-0.53-6.05-0.96 5.6-6.76 8.42-16.66 3.61-24.64 1.31-2.62 2.66-5.23 4.02-7.82-0.31-0.34-0.92-1.02-1.23-1.36z" fill="#FFD26B" stroke="#FFD26B" stroke-width=".4"/>
	<path d="m343.29 421.24c5.28 2.56 9.68 7.72 10.33 13.66 0.79 1.33-1.28 3.82-2.25 2.17-1.65-5.76-4.56-11.02-8.08-15.83z" fill="#FFF7E4" stroke="#FFF7E4" stroke-width=".4"/>
	<path d="m226.39 437c1.41-6.57 6.89-12.05 13.43-13.59-5.52 4.26-9.74 10.07-11.4 16.91-1.04-0.88-2.76-1.68-2.03-3.32z" fill="#FFF7E4" stroke="#FFF7E4" stroke-width=".4"/>
	<path d="m304.86 423.41c3.65 2.16 7.41 4.23 9.9 7.81-5.83 6.46-13.5 11.4-22.04 13.34 4.35-6.88 8.86-13.68 12.14-21.15z" fill="#E7E7E7" stroke="#E7E7E7" stroke-width=".4"/>
	<path d="m340.62 445.61c5.96-1.88 11.39-5 17.01-7.67 1.71 6.05 4.5 11.81 5.51 18.03 0.4 1.44-1.44 2.08-2.22 2.96-9.47 6.71-21.05 9.93-32.6 9.83-2.11-6.51-4.64-12.87-6.55-19.45 6.38-0.6 12.81-1.42 18.85-3.7z" fill="#522A2A" stroke="#522A2A" stroke-width=".4"/>
	<path d="m222.2 439.71c5.4 2.96 10.41 6.64 16.16 8.93 6.03 2.66 12.59 3.64 18.93 5.28-2.4 6.03-4.9 12.03-7.47 17.99-12.16 0.24-24.2-4.56-33.43-12.35-1.74-0.98-0.84-3.06-0.37-4.51 2.02-5.13 4.26-10.17 6.18-15.34z" fill="#522A2A" stroke="#522A2A" stroke-width=".4"/>
	<path d="m350.72 467.69c3.03-1.19 5.85-3.03 9.09-3.66 1.34 3.1 1.36 6.52 1.53 9.84 0.03 0.94 0.06 1.89 0.1 2.85 3.95 2.14 8.24 3.73 12.79 3.62-0.47 2.97-1.5 6.32 0.37 9.04 4.75 7.56 14.67 11.52 23.35 9.64 3.81-0.73 5.57-4.54 7.64-7.37 3.47 4.72 5.56 10.25 6.96 15.9 0.11 0.64 0.34 1.92 0.45 2.55-3.8-1.72-7.86-2.89-12.06-2.94-15.76-0.62-31.89-1.16-46.8-6.87-2.46 1.64-5 3.53-8.08 3.66-4.85 0.31-9.8 0.42-14.6-0.49-2.47-0.41-2.44-3.43-2.35-5.35 0.55-6.18 2.67-12.07 4.05-18.09 0.13-0.5 0.4-1.49 0.53-1.99 1.48 0.66 2.96 1.33 4.45 1.99-1.36-2.86-2.78-5.67-4.28-8.45 5.76-0.5 11.52-1.6 16.86-3.88z" fill="#522A2A" stroke="#522A2A" stroke-width=".4"/>
	<path d="m218.03 464.92c7.72 5.06 16.35 8.61 25.45 10.23-1.47 2.54-3 5.05-4.58 7.54 0.45 0.05 1.35 0.14 1.81 0.19 0.8 0.08 2.4 0.25 3.2 0.33 2.02 6.3 3.09 12.88 2.95 19.51-5.65 0.21-11.3 0.75-16.95 0.37-3.22-0.09-5.61-2.69-8.66-3.3-4.84 0.6-9.37 2.73-14.23 3.28-7.96 1.02-15.98 1.53-24 1.86-6.7 0.33-14.26-1.42-19.94 3.15-0.87-3.04-1.09-6.21-0.18-9.26 0.1 2.11 0.33 4.22 0.52 6.34 1.48-5.49 3.38-10.96 6.99-15.45 2.18 2.75 4.14 6.22 7.76 7.21 4.96 1.48 10.25 0.09 14.85-1.92 3.63-1.72 7.35-4.06 9.17-7.79 0.94-2.75 0.3-5.71 0.14-8.53 4.59 0.07 9.02-1.24 13.03-3.41 0.44 0.46 0.88 0.92 1.32 1.39-0.35-3.97 0.16-7.95 1.35-11.74z" fill="#522A2A" stroke="#522A2A" stroke-width=".4"/>
	<path d="m196.03 475.25c6.3 1.09 11.74-3.11 17.88-3.69 0.48 1.23 0.96 2.47 1.45 3.71-4.01 2.17-8.44 3.48-13.03 3.41 0.16 2.82 0.8 5.78-0.14 8.53-1.82 3.73-5.54 6.07-9.17 7.79-4.6 2.01-9.89 3.4-14.85 1.92-3.62-0.99-5.58-4.46-7.76-7.21-3.61 4.49-5.51 9.96-6.99 15.45-0.19-2.12-0.42-4.23-0.52-6.34 2.97-14.55 18.38-25.52 33.13-23.57z" fill="#633" stroke="#633" stroke-width=".4"/>
	<path d="m361.34 473.87c3.77-1.36 7.48 0.42 10.96 1.78 4.94 2.23 10.45 0.49 15.62 1.43 11.74 2.14 22.15 11.38 24.94 23.09 0.68 2.43 0.27 4.96-0.31 7.38-1.4-5.65-3.49-11.18-6.96-15.9-2.07 2.83-3.83 6.64-7.64 7.37-8.68 1.88-18.6-2.08-23.35-9.64-1.87-2.72-0.84-6.07-0.37-9.04-4.55 0.11-8.84-1.48-12.79-3.62-0.04-0.96-0.07-1.91-0.1-2.85z" fill="#633" stroke="#633" stroke-width=".4"/>
	<path d="m325.04 508.88c0.2-9.98 1.62-20.87 8.12-28.86-1.38 6.02-3.5 11.91-4.05 18.09-0.09 1.92-0.12 4.94 2.35 5.35 4.8 0.91 9.75 0.8 14.6 0.49 3.08-0.13 5.62-2.02 8.08-3.66 14.91 5.71 31.04 6.25 46.8 6.87 4.2 0.05 8.26 1.22 12.06 2.94l0.68 0.29c-4.41 0.55-8.85 0.34-13.28 0.12-25.12-0.52-50.25-0.71-75.36-1.63z" fill="#422222" stroke="#422222" stroke-width=".4"/>
	<path d="m240.71 482.88c1.1-0.92 2.21-1.82 3.34-2.69 4.93 8.64 7.02 18.8 6.11 28.7-23.72 0.16-47.44-0.42-71.16-0.28-5.5-0.01-11.01 0.14-16.51-0.17l0.59-0.36c5.68-4.57 13.24-2.82 19.94-3.15 8.02-0.33 16.04-0.84 24-1.86 4.86-0.55 9.39-2.68 14.23-3.28 3.05 0.61 5.44 3.21 8.66 3.3 5.65 0.38 11.3-0.16 16.95-0.37 0.14-6.63-0.93-13.21-2.95-19.51-0.8-0.08-2.4-0.25-3.2-0.33z" fill="#422222" stroke="#422222" stroke-width=".4"/>
	<path d="m352.43 259.47c-5.47-1.06-8.8899-5.88-10.26-10.97-2.38-6.21-1.04-12.88-1.4701-19.32-12.71 6.75-26.82 10.25-40.94 12.53 6.91-7.47 15.63-13.9 19.02-23.94-8.3501 4.27-16.94 7.97-25.62 11.46 0.24 3.63 1.63 7.13 1.38 10.81-0.39 8.79-7.3601 16.82-15.99 18.51-3.04 0.49-6.13 0.32-9.17-0.04-3.42-2.01-6.67-4.29-10.13-6.23-1.21-1.37-2.33-2.8199-3.34-4.33-2.16-3.15-4.38-6.25-6.76-9.23-9.8199 1.12-19.71 1.7401-29.6 1.58-0.21 0.68-0.64 2.06-0.8501 2.74-0.96-0.79-1.8999-1.6-2.8499-2.38-1.2101 0.09-2.4202 0.18-3.6201 0.27 1.14 3.67 2.17 7.41 4.04 10.79 3.34 6.04 9.53 10.3 16.27 11.61 4.76 0.91 9.6299 1 14.43 1.69 4.29 0.58 8.55 1.36 12.85 1.88 15.38 2.48 30.45 6.55 45.76 9.43 7.4399 1.3101 15.18 2.61 22.66 0.86 9.12-2.41 17.91-5.91 26.73-9.19 0.9-0.96 1.72-1.98 2.55-2.99-1.7198-1.84-3.3898-3.7-5.0899-5.54zm-109.64-3.62c0.5087-0.5687 1.0613-1.0525 1.6494-1.4634-0.5881 0.4109-1.1406 0.8947-1.6494 1.4634zm76.3-16.79c3.73 0.42 5.5599 4.33 7.3899 7.17-4.95-0.31-9.83 0.61-14.62 1.75 1.3199-3.56 2.84-8.34 7.2301-8.92zm2.8398 29.69c-7.1399 0.74-13.19-3.94-18.93-7.49 5.8 2.1 11.75 4.69 18.05 4.33 2.3799-0.07 4.1499-1.84 5.97-3.15-1.15 2.4-1.78 6.16-5.0901 6.31z" fill="#FFE7AD" stroke="#FFE7AD" stroke-width=".4"/>
		<ellipse cx="255.86" cy="258.77" rx="10.893" ry="6.6226" fill="#FF938E" stroke="#FF938E" stroke-width=".4"/>
		<circle cx="252.31" cy="257.04" r="2.6128" fill="#fff"/>
		<ellipse cx="357.76" cy="259.58" rx="9.0462" ry="5.5" fill="#FF938E" stroke="#FF938E" stroke-width=".4"/>
		<circle cx="354.81" cy="258.15" r="2.1699" fill="#fff"/>
		<circle cx="282.07" cy="249.5" r="3.7035" fill="#fff"/>
		<circle cx="275.25" cy="242.85" r="7.7597"/>
		<path d="m278.88 232.98c0.717 3.1806-2.1422 6.5345-6.3863 7.4912-4.244 0.9567-8.2657-0.8461-8.9826-4.0267l15.369-3.4645z" fill="#fff"/>
	<path d="m355.67 340.26c0.2534-1.1533-3.166-4.2007-5.2019-4.2007 1.1866 1.4202 3.3945 3.3402 5.2019 4.2007z" fill="#020101" stroke="#020101" stroke-width=".4"/>
	<ellipse cx="348.43" cy="251.79" rx="1.6135" ry="3.3151" fill="#fff"/>
	<ellipse cx="352.18" cy="244.22" rx="4.3808" ry="6.9528"/>
	<ellipse cx="354.74" cy="234.74" rx="4.4456" ry="7.2796" fill="#fff"/>
	<path d="m359.19 233.49c0.6647 2.4661 1.2869 5.055 1.5341 8.7278 0.2142 3.0117-1.1282 7.8785-2.8638 10.72-1.4041 0.1756-3.5187 0.8257-5.8562 1.625 2.8649-1.7661 4.916-5.7388 5.7562-8.0909 1.5047-3.1496 1.6731-7.8298 1.4297-12.982z" fill="#fff"/>
</svg>
