<?xml version="1.0" encoding="UTF-8"?>
<svg width="273.18" height="459.29" version="1.0" viewBox="0 0 273.17715 459.29132" xmlns="http://www.w3.org/2000/svg" xmlns:xlink="http://www.w3.org/1999/xlink">
 <defs>
  <linearGradient id="a">
   <stop stop-color="#b98663" offset="0"/>
   <stop stop-color="#b98663" stop-opacity="0" offset="1"/>
  </linearGradient>
  <filter id="l">
   <feGaussianBlur stdDeviation="0.76547473"/>
  </filter>
  <linearGradient id="p" x1="204.3" x2="140.48" y1="123.81" y2="61.874" gradientUnits="userSpaceOnUse" xlink:href="#a"/>
  <linearGradient id="q" x1="241.07" x2="190.84" y1="67.726" y2="32.778" gradientUnits="userSpaceOnUse">
   <stop stop-color="#d9a66d" offset="0"/>
   <stop stop-color="#d9a66d" stop-opacity="0" offset="1"/>
  </linearGradient>
  <filter id="k">
   <feGaussianBlur stdDeviation="1.1348505"/>
  </filter>
  <linearGradient id="r" x1="200.02" x2="213.55" y1="60.358" y2="51.171" gradientUnits="userSpaceOnUse" xlink:href="#a"/>
  <linearGradient id="s" x1="160" x2="156.07" y1="74.75" y2="77.928" gradientUnits="userSpaceOnUse">
   <stop stop-color="#e2a986" offset="0"/>
   <stop stop-color="#e2a986" stop-opacity="0" offset="1"/>
  </linearGradient>
  <filter id="n" x="-.60645" y="-.60645" width="2.2129" height="2.2129">
   <feGaussianBlur stdDeviation="2.6171274"/>
  </filter>
  <filter id="o">
   <feGaussianBlur stdDeviation="1.0049935"/>
  </filter>
  <filter id="m" x="-.052729" y="-.14559" width="1.1055" height="1.2912">
   <feGaussianBlur stdDeviation="4.9790493"/>
  </filter>
 </defs>
 <g transform="translate(-171.24 112.17)">
  <path d="m303.7 169.23s-85.2 57.34-44.65 106.41c37.19 44.99 84.06 10.1 89.98 1.39-2.09-1.57 6.42-23.17-10.11-48.47-17.56-26.89 2.01-48.11 2.01-48.11l-1.05-5.93-4.1-5.95-32.08 0.66z" fill="#c83737" fill-rule="evenodd" stroke="#820a0a" stroke-width="2.762"/>
  <path transform="matrix(2.762,0,0,2.762,-228.86,-131.04)" d="m204.44 108.47-2.88 0.06c-5.35 6.71-11.05 16.28-7.28 23.41 6.43 12.14-8.94 21.4-8.94 21.4l-0.28 0.5c11.29 4.96 22.44-3.57 24.16-6.09-0.76-0.57 2.33-8.4-3.66-17.56-6.36-9.74 0.72-17.41 0.72-17.41l-0.37-2.16-1.47-2.15z" fill="#bd2a1c" fill-rule="evenodd" filter="url(#l)"/>
  <path d="m297.75 299.53s29.016 14.794 36.475 30.422c0.62329 0.99539-12.361 13.736-26.484 20.069l47.207-13.753s-22.729-14.449-12.671-52.251l-4.5373-2.1674 0.0911 5.6396-11.983 7.4907-12.049 3.5103-16.05 1.0407z" fill-rule="evenodd" stroke="#000" stroke-width="2.762px"/>
  <path transform="translate(-190.94,-132.17)" d="m539.97 409.22c5.93-8.71-3.56-35.66-3.56-35.66l-97.29 4.16c-0.31 10.02 2.71 20.24 10.88 30.12 37.19 45 84.04 10.09 89.97 1.38z" fill-rule="evenodd" stroke="#000" stroke-width="2.762px"/>
  <path d="m251.54 228.91 85.32-2.96" fill="none" stroke="#8b0c0c" stroke-width="2.762px"/>
  <path d="m260.42 212.63 71.02-1.48" fill="none" stroke="#8b0c0c" stroke-width="2.762px"/>
  <path d="m270.28 198.82 62.64-1.48" fill="none" stroke="#8b0c0c" stroke-width="2.762px"/>
  <path d="m286.06 184.03 51.79-0.99" fill="none" stroke="#8b0c0c" stroke-width="2.762px"/>
  <circle transform="matrix(2.6321,-1.6242,1.4419,2.4561,-308.84,209.9)" cx="200.71" cy="66.571" r="41.429" fill="#eac093" stroke="#b98663" stroke-width=".93072"/>
  <path transform="matrix(1 0 0 .96954 -190.94 -125.48)" d="m620.09 219.47c-11.66 19.61-28.86 37-50.87 49.81-61.95 36.05-139.31 22.55-175.75-29.66 1.2 2.45 2.48 4.84 3.87 7.22 32.98 56.17 108.59 71.62 168.78 34.47 24.93-15.38 43.32-37.36 53.97-61.84z" fill="#e0a076" filter="url(#m)"/>
  <path transform="matrix(2.762,0,0,2.762,-228.86,-131.04)" d="m153.57 63.357c3.56 3.861 9.8 0.724 13.47 4.354 5.14 4.285 11.94 6.172 18.55 6.112 3.58 1.532 7.12 3.922 11.18 3.548 4.32 0.972 4.31 6.11 3.53 9.305 1.88 3.283 5.79 0.182 8.27-0.699 6.39-2.132 13.23 0.199 18.85 3.349 4.29 1.488 8.43-3.41 7.12-7.502-1.2-3.954-5.38-5.786-8.83-7.389-9.04-3.61-19.06-3.683-28.04-7.514-7.49-2.477-15.45-3.618-22.55-7.218-6.09-2.519-13.01-4.969-19.55-2.664-2.14 1.186-3.06 4.119-2 6.318z" fill="#e2a986" fill-rule="evenodd" filter="url(#k)"/>
  <path d="m326.91-74.592c-23.84-0.236-48.63 6.355-71.21 20.283-21.4 13.211-37.93 31.259-48.93 51.616 64.98 22.982 192.59 69.33 225.79 81.393 11.49-32.485 9.71-68.354-8.03-98.57-20.61-35.104-57.87-54.33-97.62-54.722z" fill="#ccc" stroke="#ccc" stroke-width="2.762"/>
  <path d="m298.29 56.177c1.06 1.993 2.08 4.002 3.28 5.917 1.2 1.875 2.19 3.862 3.21 5.835 0.84 1.679 1.04 3.532 1.15 5.377 0.2 1.822-0.09 3.591-0.61 5.331-0.5 1.825-1.48 3.439-2.3 5.126-0.65 1.526-1.6 2.536-2.98 3.39-2.4 0.786-5.37 3.756-8.22 4.036-1.33-0.271-2.17-1.285-3.12-2.146-1.17-1.164-1.89-2.64-2.66-4.071-0.91-1.223-1.77-2.521-1.55-4.094 1.64-2.777 5.23-3.662 8.27-3.82 1.71 0.152 3.1 1.35 4.12 2.671 1.22 1.26 1.71 2.825 1.99 4.511 0.27 1.708-0.23 3.397-0.47 5.08-0.37 1.89-1.24 3.632-2.32 5.206-2.3 2.665-5.86 4.179-8.81 5.854-0.92 0.57-1.91 0.98-2.91 1.36l3.8-2.992c0.99-0.415 1.96-0.857 2.88-1.403-7.07 4.175-0.65 0.663 0.57-0.892 1.16-1.46 1.99-3.176 2.43-4.986 0.22-1.644 0.73-3.29 0.54-4.952-0.26-1.618-0.71-3.091-1.88-4.297-0.96-1.217-2.24-2.272-3.85-2.281-0.65 0.05-1.13 0.069-1.77 0.188-0.26 0.048-0.98 0.337-0.77 0.185 6.1-4.341 4-2.402 2.58-1.55-0.5 1.409 0.62 2.677 1.37 3.792 0.74 1.385 1.44 2.816 2.59 3.923 0.84 0.774 1.64 1.755 2.87 1.782 1.93-0.459 7.12-3.625-0.23 0.661 1.44-0.934 2.38-1.449 3.11-3.14 0.77-1.696 1.83-3.252 2.32-5.07 0.57-1.672 0.88-3.403 0.7-5.172-0.1-1.78-0.26-3.573-1.06-5.2-1-1.969-1.97-3.95-3.17-5.813-1.21-1.938-2.24-3.978-3.36-5.967l4.26-2.379z" fill="#d09875"/>
  <path d="m295.73 54.204c1.05 1.993 2.08 4.002 3.27 5.917 1.2 1.875 2.19 3.862 3.21 5.835 0.84 1.679 1.04 3.532 1.16 5.377 0.19 1.822-0.09 3.591-0.62 5.331-0.49 1.825-1.48 3.44-2.29 5.126-0.66 1.526-1.6 2.536-2.99 3.391-2.4 0.785-5.36 3.755-8.22 4.035-1.32-0.271-2.16-1.284-3.12-2.146-1.16-1.164-1.88-2.64-2.66-4.071-0.9-1.223-1.76-2.521-1.55-4.094 1.65-2.777 5.24-3.662 8.27-3.82 1.72 0.152 3.11 1.35 4.12 2.671 1.22 1.26 1.71 2.825 2 4.511 0.27 1.708-0.23 3.397-0.47 5.081-0.37 1.89-1.24 3.631-2.33 5.205-2.29 2.665-5.85 4.179-8.81 5.853-0.91 0.572-1.9 0.979-2.91 1.364l3.81-2.995c0.99-0.415 1.96-0.857 2.88-1.403-7.07 4.179-0.66 0.663 0.57-0.891 1.15-1.461 1.99-3.177 2.42-4.987 0.22-1.644 0.74-3.29 0.54-4.951-0.25-1.619-0.7-3.092-1.88-4.297-0.95-1.218-2.23-2.272-3.85-2.281-0.64 0.05-1.13 0.068-1.76 0.187-0.26 0.048-0.99 0.338-0.77 0.185 6.09-4.341 4-2.401 2.57-1.55-0.5 1.409 0.63 2.677 1.37 3.792 0.75 1.385 1.44 2.816 2.59 3.923 0.84 0.774 1.64 1.755 2.87 1.782 1.94-0.459 7.12-3.625-0.22 0.661 1.44-0.934 2.38-1.449 3.1-3.14 0.77-1.696 1.84-3.251 2.33-5.07 0.57-1.671 0.87-3.402 0.7-5.172-0.1-1.78-0.26-3.573-1.06-5.2-1.01-1.969-1.98-3.95-3.17-5.813-1.21-1.938-2.24-3.978-3.36-5.967l4.26-2.379z" fill="#333"/>
  <path transform="matrix(2.762,0,0,2.762,-228.86,-131.04)" d="m153.93 63c0.28 1.109 1.85 2.992 2.5 4.286 0.61 1.225 3.15 0.52 3.93 0.714 2.02 0.507 3.42 0.126 5.35-0.357 2.34-0.584 3.89 0.313 5 1.428 0.93 0.927 0.72 2.856 1.79 3.929 0.25 0.251 4.81 0.668 5 0.714 1.84 0.459 3.63 0.031 5 0.715 0.93 0.462 2.81 0.67 3.93 1.785 1.65 1.652 1.56 1.786 4.28 1.786h5.36c2.39 0 4.35 1.265 6.43 1.786 2.55 0.636 1.41 1.826 0.71 3.214-1 2.014-0.91 2.112-2.85 3.571-1.66 1.245-0.92 3.166-0.36 4.286 0.91 1.829 1.43 2.257 1.43 4.643 0 2.429-0.21 3.109 1.43 3.929 0.19 0.094 0.27 4.661 0.35 5.001 0.21 0.82 3.67 1.43 4.65 1.43 1.13 0 2.82-1.42 3.57-1.79 1.71-0.85 3.08-1.36 4.64-2.14 1.38-0.69 1.43-5.415 1.43-6.787 0-2.453-0.12-5.12-0.71-7.5-0.84-3.344-1.53-6.534-2.15-9.643-0.66-3.316-5.01-8.229-7.14-10.357-2.49-2.488-4.69-2.306-7.86-3.572-3.1-1.242-5.8-1.718-8.93-2.5-2.23-0.557-5.17-0.357-7.5-0.357-2.73 0-4.93-1.039-7.14-2.143-2.46-1.229-4.79-0.751-7.5-1.428-1.92-0.482-3.84-0.357-5.71-0.357-1.86 0-2.7-0.04-4.29 0.357-1.19 0.298-2.56 2.916-3.21 3.571-0.54 0.539-0.96 1.191-1.43 1.786z" fill="#de996f" fill-rule="evenodd" filter="url(#o)"/>
  <path d="m334.4 111.03c-6.29-1.42-5.92 4.94-2.96 10.85 3.1 6.21 4.12-1.35 0 6.91-2.22 4.43 4.98 6.92 6.9 7.89 5.78 2.88 2.95 2.97-0.98 6.9-2.08 2.08 1.31 6.58 3.94 7.89 2.96 1.48-1.35 7.53 0.99 9.87 1.69 1.69 6.32 0.35 6.9-1.97 0.86-3.44 6.43 4.8 9.87 3.94 20.56-5.14-14.55-6.2 28.61 0.99 8.33 1.39 8.87-4.51 8.87-11.84 0-4.63-7.74-8.76-7.89-8.88-2.28-1.71 4.52-7.32 13.81 1.98 2.98 2.97 3.81-10.89 7.89-9.87 7.35 1.84 8.88-7.61 8.88-12.82 0-5.6 6.36-11.94 2.96-18.74-4.17-8.347-7.45-7.046-14.8-8.883-5.18-1.296-8.75-6.239-14.79-9.864-17.3-10.376-34.63-16.795-54.26-21.702-5.11-1.278-12.85-1.189-16.77-1.972-7.07-1.416-19.66-16.375-28.6-19.729-15.92-5.968-25.03-9.955-40.45-13.81-10.99-2.748-22.23-3.092-33.54-5.919-13.36-3.341-46.36-9.325-46.36 8.878 0 5.197 2.56 6.806 6.91 7.892 5.03 1.258 9.94-0.987 14.79-0.987 2.27 0 4.41 10.705 4.94 12.824 1.03 4.147 8.81-1.91 11.83-4.932 2.84-2.839 5.97 7.878 9.87 6.905 9.43-2.358 14.79-2.836 14.79 6.905 0 6.069 17.72 4.932 21.71 4.932 4.04 0 10.43 1.271 13.81 2.959 12.69 6.346 9.2 8.549 3.94 13.81-4.55 4.551 1.7 2.645 6.91 3.946 4.6 1.15 9.65 0.986 14.79 0.986 4.43 0 10.66-4.884 14.8-5.918 3.87-0.967 10.65 5.719 12.82 7.891 3.46 3.455 4.61 8.777 6.91 11.838 2.81 3.75 2.96 4.55 2.96 10.85z" fill="#1a1a1a" fill-rule="evenodd" stroke="#000" stroke-width="2.762px"/>
  <path d="m334.4 111.03c-6.29-1.42-5.92 4.94-2.96 10.85 3.1 6.21 4.12-1.35 0 6.91-2.22 4.43 4.98 6.92 6.9 7.89 5.78 2.88 2.95 2.97-0.98 6.9-2.08 2.08 1.31 6.58 3.94 7.89 2.96 1.48-1.35 7.53 0.99 9.87 1.69 1.69 6.32 0.35 6.9-1.97 0.86-3.44 6.43 4.8 9.87 3.94 20.56-5.14-14.55-6.2 28.61 0.99 8.33 1.39 8.87-4.51 8.87-11.84 0-4.63-7.74-8.76-7.89-8.88-2.28-1.71 4.52-7.32 13.81 1.98 2.98 2.97 3.81-10.89 7.89-9.87 7.35 1.84 8.88-7.61 8.88-12.82 0-5.6 6.36-11.94 2.96-18.74-4.17-8.347-7.45-7.046-14.8-8.883-5.18-1.296-8.75-6.239-14.79-9.864-17.3-10.376-34.63-16.795-54.26-21.702-5.11-1.278-12.85-1.189-16.77-1.972-7.07-1.416-19.66-16.375-28.6-19.729-15.92-5.968-25.03-9.955-40.45-13.81-10.99-2.748-22.23-3.092-33.54-5.919-13.36-3.341-46.36-9.325-46.36 8.878 0 5.197 2.56 6.806 6.91 7.892 5.03 1.258 9.94-0.987 14.79-0.987 2.27 0 4.41 10.705 4.94 12.824 1.03 4.147 8.81-1.91 11.83-4.932 2.84-2.839 5.97 7.878 9.87 6.905 9.43-2.358 14.79-2.836 14.79 6.905 0 6.069 17.72 4.932 21.71 4.932 4.04 0 10.43 1.271 13.81 2.959 12.69 6.346 9.2 8.549 3.94 13.81-4.55 4.551 1.7 2.645 6.91 3.946 4.6 1.15 9.65 0.986 14.79 0.986 4.43 0 10.66-4.884 14.8-5.918 3.87-0.967 10.65 5.719 12.82 7.891 3.46 3.455 4.61 8.777 6.91 11.838 2.81 3.75 2.96 4.55 2.96 10.85z" fill="none" stroke="#4b4b4b" stroke-width="2.762px"/>
  <g transform="matrix(2.762,0,0,2.762,-228.86,-131.04)">
   <circle transform="matrix(.11391 -.13591 .12281 .10762 168.15 99.877)" cx="200.71" cy="66.571" r="41.429" fill="#eac093" stroke="url(#p)" stroke-width="5.8772"/>
   <circle transform="matrix(-.072107 .058668 -.055259 -.064399 215.89 73.893)" cx="200.71" cy="66.571" r="41.429" fill="url(#q)"/>
  </g>
  <path d="m186.28 28.718c-2.98-1.936-3.8-5.163-3.49-9.068l13.25-29.993c1.77-3.661 4.63-4.388 8.37-2.79l237.86 81.609 0.69 5.58c0.95 16.192-7.21 26.924-15.34 37.664l-6.28 0.7-235.06-83.702z" fill="#ececec" fill-rule="evenodd" stroke="#ccc" stroke-width="2.762px"/>
  <circle transform="matrix(2.762,0,0,2.762,-233.63,-129.65)" cx="218.32" cy="14.784" r="7.955" fill="#ececec" stroke="#ccc"/>
  <path d="m271.18 7.9759-56.95-19.561 2.14-3.173c5.44-8.024 16.72-20.156 25.28-27.176 20.1-16.491 44.48-26.919 70.36-30.098 7.66-0.942 26.06-0.546 32.87 0.707 6.62 1.217 13.91 2.961 14.47 3.465 0.28 0.253-6.62 21.822-15.35 47.929l-15.86 47.468-56.96-19.561z" fill="#bcd35f" stroke="#879a3a" stroke-width="2.762"/>
  <path d="m383.07 46.387c-30.59-10.52-51.09-17.914-51.09-18.43 0-0.931 30.66-93.815 31.13-94.322 0.46-0.485 7.02 2 13.86 5.247 28.18 13.379 48.98 38.727 57.47 70.043 3.08 11.335 4.29 28.088 2.91 40.113-0.91 7.933-2.21 14.997-2.73 14.954-0.25-0.02-23.45-7.943-51.55-17.605z" fill="#fd5" stroke="#dab619" stroke-width="2.762"/>
  <path d="m369.04-109.77c-10.85 0-19.7 8.57-19.7 19.175 0 6.201 3.06 11.736 7.73 15.251-1.27-2.669-1.93-5.627-1.93-8.758 0-11.561 9.56-20.908 21.39-20.908 2.22 0 4.4 0.29 6.41 0.9-3.56-3.5-8.45-5.66-13.9-5.66z" fill="#fff"/>
  <ellipse transform="matrix(5.0079,0,0,4.0423,-581.29,-220.21)" cx="158.04" cy="74.75" rx="1.9643" ry="3.1783" fill="url(#s)"/>
  <ellipse transform="matrix(2.762,0,0,2.762,-221.95,-121.18)" cx="158.04" cy="74.75" rx="1.9643" ry="3.1783"/>
  <circle transform="matrix(.2154 .023628 -.024051 .21864 157.96 87.296)" cx="200.71" cy="66.571" r="41.429" fill="#eac093" stroke="url(#r)" stroke-width="12.651"/>
  <circle transform="matrix(2.762,0,0,2.762,-237.74,-139.92)" cx="173.39" cy="89.607" r="5.1786" fill="#e29b86" filter="url(#n)"/>
  <ellipse transform="matrix(1.6644,0,0,2.4258,-53.609,-105.48)" cx="160" cy="77.107" rx=".89286" ry=".71429" fill="#fff" stroke="#fff"/>
  <path d="m214.63 123.57c4.79 7.22 10.82 14.01 11.79-0.38" fill="#d35f5f" fill-rule="evenodd" stroke="#e29b86" stroke-width="1.1679"/>
  <g transform="matrix(.23667 .97159 -.97159 .23667 503.44 135.11)" fill-rule="evenodd" stroke-width="2.76">
   <path d="m12.607 193.16 31.449 18.166c2.1731 0.9548 8.9593 4.888 8.9593 4.888l21.381 10.004-11.34 15.108-12-14.5 2.5 5-5 1.5-4.5-6-2-6s-19.819-19.054-40.819-17.554z" fill="#eac093" stroke="#b98663"/>
   <path transform="translate(-190.94,-132.17)" d="m187.41 336.85c4.04-0.29 7.8142-0.20067 11.934 0.70933l5.16-12.37-14.761-4.5602" fill="#c83737" stroke="#820a0a"/>
  </g>
  <path d="m260.98 275.41s6.6796 31.878-0.8122 47.49c-0.3842 1.1098-18.451-1.0107-32.242-8.0366l40.323 28.138s-3.0043-26.765 32.745-42.644l-1.1582-4.8932-4.335 3.6086-13.351-4.6335-10.292-7.1818-10.878-11.846z" fill-rule="evenodd" stroke="#000" stroke-width="2.762px"/>
 </g>
</svg>
