<?xml version="1.0" encoding="UTF-8"?>
<svg viewBox="0 0 640 480" xmlns="http://www.w3.org/2000/svg">
 <path d="m234.5 471.17c-96.06 0-198.16-22.543-198.16-64.319 0-19.504 23.469-36.709 66.227-48.67v-164.52c0-75.132 59.185-136.25 131.94-136.25 72.75 0 131.94 61.119 131.94 136.25v164.52c42.751 11.961 66.22 29.166 66.22 48.67 0 41.779-102.1 64.319-198.16 64.319z" fill="#007f3f"/>
 <path d="m227.36 59.413c69.438 0 125.73 58.206 125.73 130v169.32c40.568 10.645 66.224 26.353 66.224 43.872 0 32.062-85.945 58.063-191.96 58.063s-191.96-25.998-191.96-58.063c0-17.519 25.649-33.227 66.22-43.872v-169.32c0-71.792 56.289-130 125.74-130m0-12.505c-76.173 0-138.14 63.928-138.14 142.5v159.81c-43.381 12.889-66.22 31.252-66.22 53.387 0 15.213 11.288 36.768 65.061 53.031 37.38 11.308 86.852 17.533 139.3 17.533 52.444 0 101.92-6.2246 139.3-17.533 53.776-16.266 65.064-37.819 65.064-53.031 0-22.132-22.843-40.495-66.224-53.387v-159.81c0-78.575-61.971-142.5-138.14-142.5z"/>
 <path d="m225.93 57.995c69.439 0 125.73 58.206 125.73 130v169.32c40.567 10.645 66.224 26.353 66.224 43.872 0 32.061-85.945 58.062-191.96 58.062s-191.96-25.997-191.96-58.062c0-17.52 25.649-33.227 66.22-43.872v-169.32c0-71.792 56.288-130 125.74-130m0 11.333c-63.138 0-114.5 53.234-114.5 118.67v169.32c0 5.1596-3.4573 9.6678-8.4058 10.966-39.723 10.419-57.815 24.362-57.815 32.909 0 7.7774 14.908 20.129 48.215 30.202 35.238 10.66 82.298 16.528 132.51 16.528 50.208 0 97.264-5.8717 132.5-16.528 33.308-10.076 48.218-22.428 48.218-30.202 0-8.5414-18.095-22.484-57.815-32.909-4.9521-1.2981-8.4088-5.8063-8.4088-10.966v-169.32c0-65.432-51.364-118.66-114.5-118.66z" fill="#3f7f00"/>
 <g transform="matrix(.69283 .17178 -.17303 .68782 77.737 -44.791)" stroke-linecap="round" stroke-linejoin="round">
  <g fill="none">
   <path d="m192.53 428.7s45.326 19.283 104.05 5.212c58.718-14.061 109.2-48.463 149.89-48.463" stroke="#1b75bb" stroke-width="20.565"/>
   <path d="m194.53 430.7s45.326 19.283 104.05 5.212c58.718-14.061 109.2-48.463 149.89-48.463" stroke="#ec1c24" stroke-width="13.529"/>
  </g>
  <g fill="#fff" stroke="#000" stroke-width=".789">
   <path d="m224.03 448.97c-1.7171 6.3489-6.8977 10.444-11.582 9.1542l-20.328-5.6401c-4.6795-1.2944-7.0728-7.4857-5.3557-13.844l0.6226-2.2984c1.722-6.3587 6.9026-10.454 11.587-9.1591l20.323 5.6402c4.6844 1.2943 7.0777 7.4955 5.3605 13.844l-0.6275 2.3033z"/>
   <path d="m281 447.67c0.50586 6.5654-3.011 12.191-7.8463 12.565l-21.014 1.6439c-4.8303 0.38382-9.1597-4.6313-9.6607-11.197l-0.18-2.3673c-0.50586-6.5703 3.011-12.201 7.8462-12.58l21.009-1.6487c4.8401-0.37891 9.1645 4.6362 9.6655 11.202l0.18 2.3821z"/>
   <path d="m336.47 433.03c1.8193 6.3193-0.48639 12.555-5.1464 13.918l-20.241 5.9502c-4.6552 1.3732-9.899-2.6478-11.713-8.972l-0.6615-2.2934c-1.8144-6.3243 0.49127-12.555 5.1465-13.928l20.241-5.9452c4.6601-1.3683 9.9039 2.6478 11.723 8.972l0.6518 2.2984z"/>
   <path d="m394.47 409.82c2.5197 6.0732 0.91455 12.53-3.5608 14.42l-19.458 8.2092c-4.4752 1.885-10.133-1.5109-12.638-7.5842l-0.9097-2.1999c-2.5101-6.0782-0.90961-12.54 3.5656-14.43l19.448-8.2092c4.485-1.885 10.137 1.5109 12.647 7.5891l0.9048 2.2049z"/>
   <path d="m448.52 394.54c1.5469 6.3932-1.0264 12.52-5.74 13.677l-20.474 5.0643c-4.7136 1.1615-9.7871-3.0809-11.324-9.479l-0.5594-2.323c-1.5468-6.398 1.0264-12.53 5.74-13.687l20.474-5.0545c4.7136-1.1664 9.7872 3.076 11.324 9.4839l0.5594 2.318z"/>
  </g>
  <path d="m192.53 423.7s46.326 21.283 105.05 7.212c58.718-14.061 108.2-48.463 148.89-48.463" fill="none" stroke="#231f20" stroke-width="5.412"/>
 </g>
 <path d="m220.22 392.83c-54.672 0-99.645-13.315-105.13-30.394-0.36682 1.1584-0.56064 2.3308-0.56064 3.5171 0 18.726 47.319 33.904 105.69 33.904 58.368 0 105.68-15.178 105.68-33.904 0-1.1863-0.19031-2.3586-0.56058-3.5171-5.4814 17.076-50.454 30.394-105.12 30.394z" fill="#1b75bb"/>
 <g fill="#fff">
  <circle cx="181.08" cy="177.35" r="2.291"/>
  <circle cx="187.24" cy="183.88" r="1.0938"/>
  <circle cx="268.02" cy="154.68" r="2.2422"/>
 </g>
 <g stroke="#000" stroke-width="5">
  <circle cx="226.41" cy="159.41" r="72.721" fill="#ff7f00"/>
  <circle cx="228.02" cy="160.65" r="38.219" fill="#fff"/>
  <circle cx="215.24" cy="146.23" r="6.8301"/>
 </g>
 <g stroke="#000" stroke-width="5">
  <line x1="225" x2="226" y1="6" y2="48" fill="none"/>
  <ellipse cx="225.5" cy="19.5" rx="13.5" ry="15.5" fill="#007f00"/>
  <g fill="#f00">
   <ellipse cx="316.5" cy="206.5" rx="6.5" ry="8.5"/>
   <ellipse cx="141.5" cy="345" rx="11.5" ry="9"/>
  </g>
  <ellipse cx="335.5" cy="402.5" rx="12" ry="10.5" fill="#7f0000"/>
 </g>
</svg>
