<?xml version="1.0" encoding="UTF-8"?>
<svg viewBox="0 0 119.53313 149.82057" xmlns="http://www.w3.org/2000/svg">
 <g transform="translate(-91.73 -96.477)" stroke="#000">
  <path d="m139.29 205.27c-1.3634 3.2002-1.6314 7.0205-4.4485 9.4276-2.1697 1.4995-4.3118 5.7864-7.0992 3.4641-4.5901-2.3098-10.581-2.2145-14.439 1.4873-2.6623 1.5677-3.1409 3.9893-0.83934 6.1283 2.4941 3.8884 7.5847 5.4532 11.903 3.9725 1.4815-0.1763 4.7986-2.5209 2.5588 0.2587-2.4543 4.0236-4.4783 9.3958-1.7167 13.792 1.4567 3.1542 5.4186 0.14541 7.8569-0.49178 5.6026-2.5437 9.6985-7.3854 13.014-12.422 2.6854 3.7658 7.4994 6.374 12.152 4.8633 3.41-0.91142 6.4212-2.8125 9.4517-4.5547-0.35226-5.5963-3.2008-11.757-8.9296-13.503-2.2101-1.2785-6.4385-0.15103-7.6026-1.2286l2.3353-9.3414" fill="#55d400" fill-rule="evenodd" stroke-width="2.1604"/>
  <path d="m202.18 155.87c0.14108 16.262-8.141 31.834-20.434 41.21-18.118 14.228-44.087 15.511-63.517 3.5162-13.626-8.176-23.873-23.201-25.301-39.988-1.5267-15.255 4.4221-30.828 14.903-41.224 13.725-14.012 34.223-19.321 52.632-14.898 16.909 3.8758 32.328 16.404 38.622 33.814 2.043 5.5857 3.1014 11.576 3.0964 17.57z" fill="#55d400" stroke-width="1.9288"/>
  <path d="m144.06 133.65c0.19912 7.8082-7.2187 14.492-14.927 13.87-7.7215-0.15094-14.413-7.5529-13.393-15.289 0.63855-8.0504 9.1936-14.004 16.984-12.187 6.3603 1.1704 11.445 7.084 11.337 13.606z" fill="#fff" stroke-width="2.1604"/>
  <path d="m194.68 117.91c0.16914 9.6577-7.6291 18.314-17.005 19.955-9.8036 2.1224-20.784-3.4353-24.292-12.954-3.3367-8.2555-0.04032-18.34 7.2637-23.322 8.5884-6.3582 21.77-5.0666 28.839 2.9931 3.2949 3.6062 5.2197 8.4331 5.195 13.328z" fill="#fff" stroke-width="2.1604"/>
  <path d="m102.45 158.75c7.4892 16.681 21.298 31.036 38.892 36.841 16.041 5.5378 34.92 3.233 48.414-7.3408 12.309-9.3644 18.989-24.594 20.188-39.763 1.517-4.5187-4.5904-2.6581-7.1273-3.3308-20.818-0.92273-41.623 1.6071-62.121 5.0391-12.872 2.244-25.671 4.9872-38.245 8.5541z" fill="#fff" fill-rule="evenodd" stroke-width="2.1604"/>
  <path d="m163.74 197.76c-0.87481-8.5038-1.9679-17.346 0.40593-25.706 0.87184-3.3673 3.9145-6.6129 7.6825-5.8104 6.043 1.2217 10.673 5.7877 14.962 9.9154 2.6601 2.8189 5.4761 5.7123 7.4698 8.9879-8.372 7.5346-19.287 11.978-30.52 12.613z" fill="#ff0" fill-rule="evenodd" stroke-width="2.1604"/>
  <path d="m134.8 128.4c0.08236 4.2468-6.192 1.9772-3.9517-1.3802 1.1245-2.1132 4.14-0.80869 3.9517 1.3802z" fill="#fff" stroke-width="2.1604"/>
  <path d="m181.72 107.78c0.00641 4.2284-6.891 2.1378-4.5162-1.3802 1.2848-2.0134 4.576-1.0087 4.5162 1.3802z" fill="#fff" stroke-width="2.1604"/>
  <path d="m130.58 152.56c1.3633 4.7297 2.5923 9.8807 6.1515 13.487 3.0669 2.9655 7.0571-0.36866 8.7823-3.1425 3.2109-4.3114 4.9626-9.4769 7.5589-14.115l0.1108 0.04813 0.03761 0.31861" fill="#ff0" fill-rule="evenodd" stroke-width="2.1604"/>
 </g>
</svg>
