<?xml version="1.0" encoding="UTF-8"?>
<svg viewBox="0 0 273.39267 212.43431" xmlns="http://www.w3.org/2000/svg">
 <g transform="translate(-211.49 -432.72)">
  <path d="m271.51 512.16s4.8327 47.676 10.632 68.914 22.553 49.41 22.553 49.41-0.96653-15.17-0.64435-23.838 4.5105-13.003 4.5105-13.003 1.2887 13.436 5.1548 23.838 9.3432 13.869 9.3432 13.869 0-13.436-0.96654-20.804-11.276-97.086-11.276-97.086z" stroke="#000"/>
  <path d="m409.88 536.87s-2.1863 49.488-7.2878 61.643-19.677 29.519-19.677 29.519c6.2391-10.918 10.675-22.696 7.2878-38.202-2.8698 15.87-11.781 31.075-24.365 44.631l0.74847-82.234z" fill="#13120d" stroke="#000"/>
  <path d="m387.94 460.91c6.4048-27.188 46.239-19.478 60.771-1.6937s35.67 60.975 35.67 60.975l-23.78-34.722c6.9886 17.484 10.626 33.893 10.569 49.118-1.7689-18.985-14.641-39.75-30.385-60.975 20.61 38.42 19.742 60.778 19.817 83.84-10.731-26.889-18.635-54.503-46.239-77.065l-11.89-5.0812z" fill="#13120d" stroke="#000"/>
  <path d="m298.52 462.28c-8.3411-56.067-69.856-13.752-69.856-13.752l36.492-6.3472c-23.288 2.9071-36.994 16.803-47.961 32.794 11.191-7.3731 13.821-13.255 32.319-16.688-27.11 15.074-33.673 44.143-37.532 69.582 11.458-18.733 23.425-49.155 37.535-57.125-22.394 20.281-26.454 60.784-25.023 90.977 19.81-46.761 28.151-68.53 46.919-83.572" fill="#13120d" stroke="#000"/>
  <path d="m289.66 628.34s20.69-3.952 25.339-11.158 1.8598-24.874 1.8598-24.874l49.516-1.1623s0.69741 21.387 1.1624 25.107 9.9962 10.694 14.181 10.694 6.5091 0.69741 6.5091 0.69741 1.8598 4.6494-0.92988 5.8117-14.181 10.461-43.472 11.158-51.608-8.3689-53.003-9.7637-1.1623-6.5091-1.1623-6.5091z" fill="#ffdead" stroke="#000"/>
  <path d="m287.98 480.76-0.93297 38.252s-2.7989-6.8418-3.7319-5.9088-7.4637 4.3538-8.3967 13.373 10.263 23.635 13.684 23.635 3.4209-3.7319 3.4209-3.7319 4.9758 21.458 7.7747 25.812 23.013 30.788 39.807 31.41 47.892-23.946 50.38-32.654 3.4209-20.214 3.4209-20.214 7.1528-0.62198 9.6407-4.6648 6.2198-17.726 6.2198-17.726l-0.62198-8.3967-5.5978-7.4638-4.6648 2.1769-1.555 3.1099-4.3538-42.917z" fill="#ffdead"/>
  <path d="m383.99 526.91c-2.8378 6.5192-2.2242 4.8319-3.6048 7.3629s-1.1504 4.9853-11.735 4.9086-10.814-2.0708-10.891-5.3688 0.15339-5.062 0.15339-5.062 9.0466-5.1845 12.195-4.8319c9.5871 1.0738 13.882 2.9912 13.882 2.9912z" fill="#fff"/>
  <path d="m330.72 576.81s5 1.1833 11 1.1833 13-1.775 13-1.775" fill="none" stroke="#000"/>
  <path d="m332.09 559.13c5.9586 4.4418 11.671 5.44 16.905-0.27266" fill="none" stroke="#000"/>
  <path d="m334.78 582.3s2.8001 2.6251 7.0002 2.45c4.2001-0.175 7.5252-2.625 7.5252-2.625" fill="none" stroke="#000"/>
  <path d="m286.65 518.36s-3.3033-10.236-8.6378-1.361c-3.2614 5.4257-2.7871 11.575-2.7871 11.575-0.39022 6.1984 8.5599 21.496 12.555 22.212s4.5653-4.2992 4.5653-4.2992" fill="none" stroke="#000"/>
  <path d="m286.09 525.34s-3.1176 3.0323-2.8578 4.8517 4.1568 5.4582 4.1568 5.4582" fill="none" stroke="#000"/>
  <path d="m282.66 518.45c-4.1971 1.0119-3.9822 6.8733-4.7292 9.5795 0.3724-3.1028 0.72008-10.64 4.7292-9.5795z" fill="none" stroke="#000"/>
  <path d="m397.66 517.69s3.3033-10.236 8.6378-1.361c3.2614 5.4257 2.7871 11.575 2.7871 11.575 0.39022 6.1984-8.5599 21.496-12.555 22.212s-3.3703-1.3971-3.3703-1.3971" fill="none" stroke="#000"/>
  <path d="m398.23 524.66s3.1176 3.0323 2.8578 4.8517-4.1568 5.4582-4.1568 5.4582" fill="none" stroke="#000"/>
  <path d="m401.65 517.77c4.1971 1.0119 3.9822 6.8733 4.7292 9.5795-0.3724-3.1028-0.72008-10.64-4.7292-9.5795z" fill="none" stroke="#000"/>
  <path d="m323.6 596.49c0.92987 8.1364 8.1364 9.7637 9.0663 11.391s8.0898 12.463 11.158 12.321c8.3452-0.38729 10.488-8.5768 12.321-9.0663 5.6579-1.5114 5.5792-3.2546 8.1364-3.7195 2.6078-0.47415 2.5572-0.6974 2.5572-0.6974l-0.23247-11.856s-16.027 8.6084-26.269 9.0663c-7.4277 0.33208-16.738-7.439-16.738-7.439z" fill="#cd853f"/>
  <path d="m274.47 532.57s9.7158 17.974 13.602 17.974 3.9999-1.7707 3.9999-1.7707 3.4988 11.176 5.3414 17.65c5.1691 18.16 32.444 37.096 43.61 37.072s46.031-15.48 50.3-38.53c1.545-8.3421 2.1656-13.564 2.1656-13.564s3.5841 1.5563 9.7158-5.7159c3.9861-4.7275 6.4015-13.915 6.4015-13.915" fill="none" stroke="#000" stroke-width="2"/>
  <path d="m285.33 509.34c-2.6938 22.074 2.0702 42.895 6.0474 63.223-0.15097-31.013-0.56591-52.111 6.6082-84.589-3.2548 26.995-3.0463 43.514-0.56077 71.945 1.4839-22.357 4.4419-44.714 13.194-67.072-2.2663 12.428-0.10869 22.203 4.9479 30.237-0.6165-19.164 10.018-30.828 17.593-44.531-3.2458 11.188-7.0348 21.652-6.0474 38.484 1.5929-22.628 9.3019-31.8 18.142-38.484-4.4617 10.565-6.3484 23.706-4.9479 40.133 1.1795-16.947 3.1429-32.953 11.545-41.233 15.313 11.929 13.403 27.686 16.493 42.332-0.60209-12.33 0.48349-17.066-2.7488-41.233 6.8212 14.712 14.327 30.288 12.645 45.081 2.7521-16.493 6.7302-13.744 6.5972-30.237 4.1097 23.247 9.2401 37.542 7.147 57.176 2.5955-7.7231 5.9151-26.562 4.3981-40.683 7.6967 14.259 12.095 18.05 16.493 37.934 4.9288 0 1.4522-44.532-12.095-75.868-4.4183-10.22-20.891-31.337-43.981-33.536-6.7696-0.64473-8.2465 2.1991-11.545 2.1991s-12.095-5.4977-12.095-5.4977-33.26-1.582-55.527 37.384c-13.194 23.09-4.3981 78.067-4.3981 78.067 2.0587-18.067 5.5908-31.428 12.095-41.233z" fill="#13120d" stroke="#000"/>
  <path transform="translate(0,4)" d="m290.83 449.54c0 2.8845-1.9691 5.2228-4.3981 5.2228s-4.3981-2.3383-4.3981-5.2228 1.9691-5.2228 4.3981-5.2228 4.3981 2.3383 4.3981 5.2228z" fill="#007783" fill-opacity=".9843"/>
  <path transform="translate(-1.6493 1.2512)" d="m299.62 446.52c0 2.7327-2.0922 4.9479-4.673 4.9479s-4.673-2.2152-4.673-4.9479 2.0922-4.9479 4.673-4.9479 4.673 2.2152 4.673 4.9479z" fill="#008b98" fill-opacity=".9882" stroke="#000" stroke-opacity=".9843" stroke-width=".3"/>
  <path d="m368.61 592.96s-3.0143 16.89-0.26544 24.257 12.095 9.6301 12.095 9.6301" fill="none" stroke="#000"/>
  <g transform="matrix(.91277 0 0 .91277 33.58 44.098)">
   <path transform="matrix(-1.4978 0 0 1.5012 923.54 -260.54)" d="m376.54 528.32c0 2.8611-2.4414 5.1804-5.4531 5.1804s-5.4531-2.3194-5.4531-5.1804 2.4414-5.1805 5.4531-5.1805 5.4531 2.3194 5.4531 5.1805z" fill="#007580" fill-opacity=".9844" stroke="#0f0202" stroke-linecap="round" stroke-linejoin="round" stroke-opacity=".5176" stroke-width=".73062"/>
   <path transform="translate(47.862 .57207)" d="m322.8 531.98c0 1.5013-1.217 2.7183-2.7183 2.7183s-2.7183-1.217-2.7183-2.7183 1.217-2.7183 2.7183-2.7183 2.7183 1.217 2.7183 2.7183z"/>
   <path d="m375.25 530.85c-2.8882-3.9076-2.8882 1.3592-4.9269 3.5678s-7.9233-0.47-7.4753 2.0387c0.84946 4.757 7.8163 3.5689 10.024 1.1893 2.5171-2.7135 2.3785-6.7957 2.3785-6.7957z" fill="#00cadc" fill-opacity=".6719"/>
   <path transform="matrix(.85603 .51692 -.51692 .85603 366.35 -87.465)" d="m318.05 529.4c0 1.2982-0.86938 2.3506-1.9418 2.3506s-1.9418-1.0524-1.9418-2.3506 0.86939-2.3506 1.9418-2.3506 1.9418 1.0524 1.9418 2.3506z" fill="#fff" fill-opacity=".6094"/>
   <path transform="matrix(.18149 .99396 -1.6434 .10977 1179.4 164.88)" d="m318.05 529.4c0 1.2982-0.86938 2.3506-1.9418 2.3506s-1.9418-1.0524-1.9418-2.3506 0.86939-2.3506 1.9418-2.3506 1.9418 1.0524 1.9418 2.3506z" fill="#fff" fill-opacity=".6719"/>
   <path d="m356.92 517.85c13.301-6.6192 23.455-2.6454 35.07 0-11.616-2.347-20.983-8.3745-35.07 0z" fill="none" stroke="#000" stroke-width="1.0956"/>
   <path d="m356.17 526.87s6.5944-3.3407 11.002-3.4439 11.346 1.3776 11.346 1.3776" fill="none" stroke="#000" stroke-width="1.0956"/>
   <path d="m382.2 533.67 0.78754-4.5941s-3.6006-3.2266-13.638-2.9927c-4.4993 0.10485-14.051 5.467-14.051 5.467s9.8909-6.0982 13.973-6.2808c5.5285-0.24736 16.079 2.7564 16.079 2.7564z" stroke="#000" stroke-width="1.0956"/>
   <path d="m376.99 541.58c-6.6147 0.95565-13.23 1.3394-19.844-0.40881 5.47 2.2852 11.769 3.0141 19.844 0.40881z" fill="none" stroke="#000" stroke-width="1.0956"/>
  </g>
  <path d="m343.33 461.33-7.6555-11.707s-9.1564 0.48791-17.254 5.4123-18.032 16.082-18.032 16.082" fill="none" stroke="#282828"/>
  <path d="m350.46 456.65s6.5837-5.5398 11.178-5.2602c4.4481 0.27069 28.382 38.1 26.301 38.794" fill="none" stroke="#282828"/>
  <path transform="translate(96.932 8.8149)" d="m299.62 446.52c0 2.7327-2.0922 4.9479-4.673 4.9479s-4.673-2.2152-4.673-4.9479 2.0922-4.9479 4.673-4.9479 4.673 2.2152 4.673 4.9479z" fill="#008b98" fill-opacity=".9882" stroke="#000" stroke-opacity=".9843" stroke-width=".3"/>
  <path transform="translate(102.19 15.39)" d="m299.62 446.52c0 2.7327-2.0922 4.9479-4.673 4.9479s-4.673-2.2152-4.673-4.9479 2.0922-4.9479 4.673-4.9479 4.673 2.2152 4.673 4.9479z" fill="#008b98" fill-opacity=".9882" stroke="#000" stroke-opacity=".9843" stroke-width=".3"/>
  <path d="m301.88 527.07c2.8378 6.5192 2.2242 4.8319 3.6048 7.3629s1.1504 4.9853 11.735 4.9086 10.814-2.0708 10.891-5.3688-0.15339-5.062-0.15339-5.062-9.0466-5.1845-12.195-4.8319c-9.5871 1.0738-13.882 2.9912-13.882 2.9912z" fill="#fff"/>
  <g transform="matrix(-.91277 0 0 .91277 652.71 44.044)">
   <path transform="matrix(-1.4978 0 0 1.5012 923.54 -260.54)" d="m376.54 528.32c0 2.8611-2.4414 5.1804-5.4531 5.1804s-5.4531-2.3194-5.4531-5.1804 2.4414-5.1805 5.4531-5.1805 5.4531 2.3194 5.4531 5.1805z" fill="#007580" fill-opacity=".9844" stroke="#0f0202" stroke-linecap="round" stroke-linejoin="round" stroke-opacity=".5176" stroke-width=".73062"/>
   <path transform="translate(47.862 .57207)" d="m322.8 531.98c0 1.5013-1.217 2.7183-2.7183 2.7183s-2.7183-1.217-2.7183-2.7183 1.217-2.7183 2.7183-2.7183 2.7183 1.217 2.7183 2.7183z"/>
   <path d="m375.25 530.85c-2.8882-3.9076-2.8882 1.3592-4.9269 3.5678s-7.9233-0.47-7.4753 2.0387c0.84946 4.757 7.8163 3.5689 10.024 1.1893 2.5171-2.7135 2.3785-6.7957 2.3785-6.7957z" fill="#00cadc" fill-opacity=".6719"/>
   <path transform="matrix(.85603 .51692 -.51692 .85603 366.35 -87.465)" d="m318.05 529.4c0 1.2982-0.86938 2.3506-1.9418 2.3506s-1.9418-1.0524-1.9418-2.3506 0.86939-2.3506 1.9418-2.3506 1.9418 1.0524 1.9418 2.3506z" fill="#fff" fill-opacity=".6094"/>
   <path transform="matrix(.18149 .99396 -1.6434 .10977 1179.4 164.88)" d="m318.05 529.4c0 1.2982-0.86938 2.3506-1.9418 2.3506s-1.9418-1.0524-1.9418-2.3506 0.86939-2.3506 1.9418-2.3506 1.9418 1.0524 1.9418 2.3506z" fill="#fff" fill-opacity=".6719"/>
   <path d="m356.92 517.85c13.301-6.6192 23.455-2.6454 35.07 0-11.616-2.347-20.983-8.3745-35.07 0z" fill="none" stroke="#000" stroke-width="1.0956"/>
   <path d="m356.17 526.87s6.5944-3.3407 11.002-3.4439 11.346 1.3776 11.346 1.3776" fill="none" stroke="#000" stroke-width="1.0956"/>
   <path d="m382.2 533.67 0.78754-4.5941s-3.6006-3.2266-13.638-2.9927c-4.4993 0.10485-14.051 5.467-14.051 5.467s9.8909-6.0982 13.973-6.2808c5.5285-0.24736 16.079 2.7564 16.079 2.7564z" stroke="#000" stroke-width="1.0956"/>
   <path d="m376.99 541.58c-6.6147 0.95565-13.23 1.3394-19.844-0.40881 5.47 2.2852 11.769 3.0141 19.844 0.40881z" fill="none" stroke="#000" stroke-width="1.0956"/>
  </g>
  <path d="m314.76 591.6s2.4657 9.534 2.4657 14.794-1.4794 11.671-7.0684 14.794-10.685 4.6026-10.685 4.6026" fill="none" stroke="#000"/>
  <path d="m380.45 460.01s11.923 10.839 18.968 26.014 11.381 34.143 11.381 34.143" fill="none" stroke="#1b1b17"/>
  <path d="m314.87 491.44c-1.3317-4.5834 8.9316-20.334 10.839-18.426" fill="none" stroke="#1d1d1a"/>
  <path d="m236.32 531.9s0-25.243 8.7881-37.023 21.97-28.609 21.97-28.609" fill="none" stroke="#2e2d27"/>
  <path d="m407.66 450.83s11.363-0.77836 18.594 0.77838 20.66 15.567 20.66 15.567" fill="none" stroke="#282828"/>
  <path d="m362.38 526.14s3.4954-1.7318 5.1634-2.2544 4.727-0.87266 4.727-0.87266l0.0727-0.43634-3.6362-0.21817-3.9271 0.65451-2.4726 1.0181z" fill="#ffdead"/>
  <path d="m324.35 526.21s-3.2046-1.6591-4.9452-2.2544-4.727-1.0181-4.727-1.0181l-0.0727-0.43634 3.6362-0.21817 3.9271 0.65451 2.4726 1.0181z" fill="#ffdead"/>
 </g>
</svg>
