<?xml version="1.0" encoding="UTF-8"?>
<svg viewBox="0 0 404.4324 615.45245" xmlns="http://www.w3.org/2000/svg">
 <defs>
  <filter id="a" x="-.41856" y="-.44845" width="1.8371" height="1.8969">
   <feGaussianBlur stdDeviation="2.64254"/>
  </filter>
  <linearGradient id="b" x1="345.73" x2="337.25" y1="-164.53" y2="505.15" gradientUnits="userSpaceOnUse">
   <stop stop-color="#00112b" offset="0"/>
   <stop stop-color="#0055d4" offset="1"/>
  </linearGradient>
 </defs>
 <g transform="matrix(.81533 0 0 .81533 -72.756 203.59)">
  <path d="m141.95-247.87h390.61a50.88 50.88 0 0 1 50.88 50.88v649.43a50.88 50.88 0 0 1 -50.88 50.88h-390.61a50.88 50.88 0 0 1 -50.88 -50.88v-649.43a50.88 50.88 0 0 1 50.88 -50.88" fill="url(#b)" stroke="#59f" stroke-width="3.6649"/>
  <path transform="translate(8.3355 7.1035)" d="m330.31 371.84c-100.94 0-190.64 30.979-247.28 78.938 2.6981 25.611 24.244 45.438 50.594 45.438h390.59c27.095 0 49.115-20.965 50.781-47.625-56.766-46.707-145.3-76.75-244.69-76.75z" fill="#025"/>
  <g transform="matrix(1.1458 0 0 1.1458 -34.913 -63.786)">
   <path transform="translate(8.3355 7.1035)" d="m305.07 356.68 4.0406 39.396h9.0914l-8.0812-40.406-5.0508 1.0102z" fill="#ffb380" fill-rule="evenodd"/>
   <path transform="translate(8.3355 7.1035)" d="m349.51 356.68-4.0406 44.447 6.0609-1.0102 7.0711-47.477-9.0914 4.0406z" fill="#ffb380" fill-rule="evenodd"/>
   <path transform="translate(8.3355 7.1035)" d="m286.88 327.39-6.0609 31.315 43.437 2.0203v-9.0914h7.0711v8.0812l41.416-3.0305-6.0609-34.345-79.802 5.0508z" fill="#f59" fill-rule="evenodd"/>
   <path transform="translate(8.3355 7.1035)" d="m257.59 291.02-13.132 39.396s-15.152 2.0203-13.132 7.0711 9.0914-2.0203 9.0914-2.0203-10.102 14.142-5.0508 16.162 10.102-13.132 10.102-13.132-4.0406 13.132 3.0305 11.112 1.0102-13.132 1.0102-13.132 11.112 6.0609 11.112 1.0102-11.112-6.0609-11.112-6.0609l15.152-38.386-7.0711-2.0203z" fill="#ffb380" fill-rule="evenodd"/>
   <path transform="translate(8.3355 7.1035)" d="m374.77 215.26 28.284-38.386s-9.0914-9.0914-7.0711-13.132 11.112-1.0102 11.112-1.0102 6.0609-28.284 15.152-24.244-11.112 25.254-11.112 25.254 11.112-4.0406 11.112 1.0102-5.0508 7.0711-5.0508 7.0711 11.112 6.0609 7.0711 8.0812-12.122-1.0102-12.122-1.0102l-5.0508 3.0305-28.284 45.457-4.0406-12.122z" fill="#ffb380" fill-rule="evenodd"/>
   <path d="m364.92 240.55 18.183-20.203 25.254 30.305-33.335 28.284 3.0305 56.569s-26.264 9.0914-50.508 9.0914-39.396-10.102-39.396-10.102l5.0508-48.487-18.183 22.223-23.234-25.254s23.234-33.335 28.284-38.386 84.853-6.0609 84.853-4.0406z" fill="#0cf" fill-rule="evenodd"/>
   <path transform="translate(8.3355 7.1035)" d="m377.14 196.64a60 60 0 1 1 -120 0 60 60 0 1 1 120 0z" fill="#ffb380"/>
   <path transform="matrix(1.2571 0 0 1.2647 -72.794 -33.239)" d="m327.29 165.76a17.678 17.173 0 1 1 -35.355 0 17.678 17.173 0 1 1 35.355 0z" fill="#fff" opacity=".78365"/>
   <path transform="translate(-1.766 2.0527)" d="m369.72 178.89a16.162 17.173 0 1 1 -32.325 0 16.162 17.173 0 1 1 32.325 0z" fill="#fff" opacity=".78365"/>
   <path transform="translate(8.3355 10.134)" d="m317.19 154.15a6.566 6.566 0 1 1 -13.132 0 6.566 6.566 0 1 1 13.132 0z" fill="#280b0b" opacity=".78365"/>
   <path transform="translate(6.3152 9.1238)" d="m353.55 164.25a7.5761 6.566 0 1 1 -15.152 0 7.5761 6.566 0 1 1 15.152 0z" fill="#280b0b" opacity=".78365"/>
   <path transform="translate(8.3355 7.1035)" d="m327.29 230.41a4.0406 4.0406 0 1 1 -8.0812 0 4.0406 4.0406 0 1 1 8.0812 0z" fill="#280b0b" opacity=".78365"/>
   <path transform="translate(8.3355 7.1035)" d="m308.1 217.28a7.5761 7.0711 0 1 1 -15.152 0 7.5761 7.0711 0 1 1 15.152 0z" fill="#ff8080" filter="url(#a)" opacity=".62632"/>
   <path transform="matrix(.46667 0 0 1 211.54 9.1238)" d="m308.1 217.28a7.5761 7.0711 0 1 1 -15.152 0 7.5761 7.0711 0 1 1 15.152 0z" fill="#ff8080" filter="url(#a)" opacity=".62632"/>
   <path transform="matrix(.9339 .35754 -.35754 .9339 149.71 -64.754)" d="m322.24 293.01c-3.3912 3.227-11.853-12.49-16.217-10.795s-0.04211 18.924-4.7154 18.824 0.44468-17.115-3.8282-19.029-13.341 13.462-16.58 10.081 12.519-11.848 10.822-16.207-18.991-0.08148-18.894-4.7498 17.184 0.4786 19.074-3.7943-13.371-13.478-9.9823-16.704 11.677 12.563 16.032 10.875 0.07451-19.163 4.7512-19.048-0.49433 17.357 3.7923 19.234 13.547-13.477 16.756-10.085-12.491 11.851-10.822 16.211 18.998 0.10623 18.895 4.7845-17.191-0.50616-19.074 3.7791 13.383 13.397 9.9919 16.624z" fill="#eed7f4"/>
   <path transform="matrix(.55146 0 0 .55146 137.95 317.08)" d="m378.78-0.85297c-5.4884 3.3771-12.401-20.285-18.768-19.254s-5.4154 25.727-11.674 24.238 5.5584-23.226 0.34199-27.012-22.069 14.314-25.432 8.8149 20.364-12.364 19.318-18.726-25.74-5.4596-24.257-11.739 23.168 5.59 26.961 0.3708-14.339-21.959-8.8736-25.354 12.428 20.052 18.794 19.02 5.4248-25.542 11.698-24.07-5.55 22.997-0.33292 26.789 21.99-14.076 25.369-8.5916-20.359 12.34-19.301 18.688 25.789 5.387 24.289 11.663-22.994-5.4702-26.768-0.25694 14.124 22.042 8.6354 25.419z" fill="#f59"/>
   <path transform="translate(8.3355 7.1035)" d="m309.11 390.02s-10.102-13.132-11.112-4.0406 8.0812 13.132 8.0812 13.132-6.0609 4.0406-16.162 6.0609-21.213 9.0914-21.213 17.173 7.0711 8.0812 7.0711 8.0812l48.487-2.0203s4.0406-4.0406 0-12.122-4.0406-20.203-4.0406-20.203 8.0812-11.112 3.0304-11.112-13.132 4.0406-14.142 5.0508z" fill="#bc5fd3" fill-rule="evenodd"/>
   <path transform="translate(8.3355 7.1035)" d="m340.42 404.16c-2.0203-11.112-4.0406-4.0406 6.0609-4.0406s4.0406-17.173 14.142-13.132-9.0914 16.162-9.0914 16.162 6.0609 10.102 15.152 9.0914 7.0711-13.132 25.254-7.0711c12.008 4.0026 17.173 20.203 13.132 22.223s-71.721 1.0102-71.721 1.0102-2.0203-7.0711 0-12.122 8.0812-11.112 7.0711-12.122z" fill="#bc5fd3" fill-rule="evenodd"/>
   <path transform="translate(8.3355 7.1035)" d="m289.91 406.18s14.142-3.0305 20.203 2.0203 8.0812 16.162 8.0812 16.162" fill="none" stroke="#672178"/>
  </g>
  <path transform="translate(53.966 -11.223)" d="m317.18-6.8282c-5.6332 4.8498-35.001-26.572-42.404-25.951s-30.853 36.444-37.184 32.577 14.069-41.257 11.199-48.1-44.172-18.565-42.469-25.788 44.008 0.86595 49.628-3.984 3.5801-47.515 10.99-48.128 12.871 41.949 19.213 45.795 46.309-11.376 49.213-4.5458-35.885 25.096-37.572 32.331 25.019 40.943 19.386 45.793z" fill="#59f" stroke="#80b3ff" stroke-width="3.103"/>
  <path transform="matrix(.88159 .47202 -.47202 .88159 47.524 -165.9)" d="m398.97 61.628c-2.2047 2.6444-17.914-9.2902-21.255-8.4451s-11.475 18.974-14.676 17.708 3.42-20.073 1.5935-22.989-21.565-4.972-21.342-8.4066 20.084-3.0773 22.299-5.7214-1.941-21.996 1.4025-22.828 9.033 18.147 12.236 19.415 20.498-8.6103 22.329-5.6956-14.523 14.243-14.768 17.68 14.386 16.638 12.181 19.282z" fill="#59f" stroke="#80b3ff" stroke-width="3.103"/>
  <path transform="translate(14.396 35.388)" d="m218.17 78.8c-3.7645 4.0741-28.151-16.381-33.577-15.29s-19.718 29.62-24.758 27.331 6.9534-31.952 4.2459-36.783-34.408-9.822-33.792-15.329 32.625-3.112 36.376-7.1956-1.4767-35.782 3.9629-36.862 13.248 29.908 18.295 32.191 33.273-12.127 36.008-7.309-24.248 21.779-24.872 27.277 21.875 27.895 18.111 31.969z" fill="#59f" stroke="#80b3ff" stroke-width="3.103"/>
  <path transform="matrix(.57154 0 0 .49697 272.53 -71.413)" d="m429.15-33.217c-5.6293 2.9524-23.845-28.855-30.134-29.779s-32.944 24.343-37.531 19.935 19.971-31.569 18.865-37.842-33.454-23.727-30.647-29.434 36.273 8.8642 41.888 5.8916 12.44-39.018 18.742-38.138 2.3728 37.415 6.957 41.841 40.914-0.25774 42.001 6.0112-34.57 13.965-37.345 19.695 12.833 38.867 7.2039 41.819z" fill="#59f" stroke="#80b3ff" stroke-width="3.103"/>
  <path transform="matrix(.79298 .60925 -.60925 .79298 28.81 -147.84)" d="m150.44-62.6c-2.3263 2.745-18.584-9.8948-22.082-9.0405s-12.079 19.836-15.423 18.499 3.5336-21.002 1.6277-24.062-22.511-5.364-22.274-8.9531 21.091-2.9318 23.409-5.6897-1.8202-22.991 1.6758-23.863 9.342 18.889 12.673 20.251 21.323-8.7309 23.218-5.6712-15.284 14.717-15.551 18.311 15.055 17.473 12.729 20.218z" fill="#59f" stroke="#80b3ff" stroke-width="3.103"/>
  <path d="m295.64 462.65h1.1795c0.71641 2e-5 1.3717 1.7038 1.9659 5.1113h0.39317c2.1494-2.6211 3.9842-3.9317 5.5044-3.9317 2.9182 2e-5 5.1462 4.0628 6.684 12.188-0.45435 3.4075-1.1096 5.1113-1.9659 5.1113h-0.78636c-1.328-7.0946-2.9008-11.288-4.7181-12.582h-0.39315c-1.8348 2e-5 -3.0144 4.587-3.5386 13.761l-1.5727 0.78636c-1.3106-0.43687-1.9659-1.0922-1.9659-1.9659 0-3.2153-0.65531-9.1129-1.9659-17.693l1.1796-0.78636zm32.293-1.9659c2.0969 4e-5 3.1454 5.2423 3.1454 15.727h0.39317l-0.39317 0.39317v0.39317l1.363 3.1716c-0.26213 1.1009-0.91743 2.0183-1.9659 2.7522-2.062 0-3.3027-2.892-3.722-8.6761v-1.1795h-0.78636c-2.761 6.0287-5.5132 9.043-8.2567 9.043-3.1454 0-4.7181-5.1113-4.7181-15.334l-0.39317-1.9659c0-1.1184 0.91741-2.1668 2.7522-3.1454 1.0834 0.36698 1.8698 1.0223 2.359 1.9659v7.8635l0.78634 5.5044h0.78635c3.5473-3.5997 5.6442-7.6625 6.2908-12.188 0-2.8832 0.78634-4.3249 2.3591-4.3249zm25.95 1.8348c2.9357 0.52424 4.8054 6.0549 5.6093 16.592v0.78636c-0.68153 2.0969-1.861 3.1454-3.5386 3.1454l-0.78635-2.3591v-2.359c-0.19226-7.8635-0.97857-11.795-2.359-11.795-4.0716 2.429-5.6442 7.5402-4.7181 15.334l-1.9659 1.1795h-0.39316c-0.78637-0.26213-1.1796-1.0484-1.1795-2.3591-2e-5 -8.0033-0.78637-12.459-2.3591-13.368h-0.78634c-2.5688 3.3201-3.3551 8.4314-2.359 15.334-0.71648 1.0485-1.6339 1.5727-2.7522 1.5727h-0.39318c-0.12233-0.78635-0.57665-7.6713-1.363-20.655 0.15727-0.78634 0.61162-1.3717 1.363-1.7562 1.5727 0.61163 2.3591 1.529 2.3591 2.7522h1.1795c-2e-5 -0.83876 0.91737-1.7561 2.7522-2.7522h1.1795c1.4678 1.0135 2.7784 2.7173 3.9317 5.1113 0.52421 4e-5 1.4416-1.0484 2.7522-3.1454l3.8269-1.2582zm21.651-1.8348c2.097 4e-5 3.1454 5.2423 3.1454 15.727h0.39318l-0.39318 0.39317v0.39317l1.363 3.1716c-0.26216 1.1009-0.91743 2.0183-1.9659 2.7522-2.062 0-3.3027-2.892-3.722-8.6761v-1.1795h-0.78634c-2.761 6.0287-5.5132 9.043-8.2567 9.043-3.1454 0-4.7181-5.1113-4.7181-15.334l-0.39319-1.9659c0-1.1184 0.91741-2.1668 2.7522-3.1454 1.0834 0.36698 1.8698 1.0223 2.3591 1.9659v7.8635l0.78635 5.5044h0.78636c3.5473-3.5997 5.6442-7.6625 6.2908-12.188-2e-5 -2.8832 0.78634-4.3249 2.359-4.3249z" fill="#06f"/>
  <path transform="matrix(.6208 .43104 -.43104 .6208 307.95 -50.58)" d="m317.18-6.8282c-5.6332 4.8498-35.001-26.572-42.404-25.951s-30.853 36.444-37.184 32.577 14.069-41.257 11.199-48.1-44.172-18.565-42.469-25.788 44.008 0.86595 49.628-3.984 3.5801-47.515 10.99-48.128 12.871 41.949 19.213 45.795 46.309-11.376 49.213-4.5458-35.885 25.096-37.572 32.331 25.019 40.943 19.386 45.793z" fill="#59f" stroke="#80b3ff" stroke-width="3.103"/>
  <path transform="matrix(.46262 0 0 .49847 316.21 216.64)" d="m429.15-33.217c-5.6293 2.9524-23.845-28.855-30.134-29.779s-32.944 24.343-37.531 19.935 19.971-31.569 18.865-37.842-33.454-23.727-30.647-29.434 36.273 8.8642 41.888 5.8916 12.44-39.018 18.742-38.138 2.3728 37.415 6.957 41.841 40.914-0.25774 42.001 6.0112-34.57 13.965-37.345 19.695 12.833 38.867 7.2039 41.819z" fill="#59f" stroke="#80b3ff" stroke-width="3.103"/>
  <path transform="matrix(.82256 0 0 .71524 -138.46 281.94)" d="m429.15-33.217c-5.6293 2.9524-23.845-28.855-30.134-29.779s-32.944 24.343-37.531 19.935 19.971-31.569 18.865-37.842-33.454-23.727-30.647-29.434 36.273 8.8642 41.888 5.8916 12.44-39.018 18.742-38.138 2.3728 37.415 6.957 41.841 40.914-0.25774 42.001 6.0112-34.57 13.965-37.345 19.695 12.833 38.867 7.2039 41.819z" fill="#59f" stroke="#80b3ff" stroke-width="3.103"/>
  <text x="233.15912" y="-192.40811" fill="#59f" font-family="Bitstream Vera Sans" font-size="72.305">
   <tspan x="233.15912" y="-192.40811" fill="#59f" font-family="Complete in Him" font-size="50.614">twinkle stars</tspan>
  </text>
 </g>
</svg>
